<svg width="46" height="46" viewBox="0 0 46 46" fill="none" xmlns="http://www.w3.org/2000/svg">
<g clip-path="url(#clip0)">
<path d="M44.2031 21.2031H6.14906L12.4529 14.9299C13.1562 14.2298 13.1589 13.0921 12.4589 12.3887C11.7588 11.6853 10.621 11.6826 9.91765 12.3826L0.528614 21.7264C0.527985 21.7269 0.527536 21.7275 0.526996 21.7281C-0.174593 22.4281 -0.176839 23.5695 0.526817 24.2719C0.527446 24.2724 0.527895 24.2731 0.528434 24.2736L9.91747 33.6174C10.6208 34.3172 11.7585 34.3148 12.4587 33.6112C13.1588 32.9079 13.1561 31.7702 12.4527 31.0701L6.14906 24.7969H44.2031C45.1955 24.7969 46 23.9924 46 23C46 22.0076 45.1955 21.2031 44.2031 21.2031Z" fill="white"/>
</g>
<defs>
<clipPath id="clip0">
<rect width="46" height="46" fill="white"/>
</clipPath>
</defs>
</svg>
