<svg width="1022" height="970" viewBox="0 0 1022 970" fill="none" xmlns="http://www.w3.org/2000/svg">
<path fill-rule="evenodd" clip-rule="evenodd" d="M591.19 649.469L527.185 686.666L526.782 832.467L526.782 832.536L527.686 833.098L527.78 833.044L591.19 796.193V795.036L527.783 831.885L528.183 687.242L591.19 650.626V649.469Z" fill="#C9C9C9"/>
<path fill-rule="evenodd" clip-rule="evenodd" d="M590.205 650.565L528.139 686.636L402.237 613.943L465.544 577.151L464.485 576.61L401.238 613.366L400.694 613.682L400.694 614.207L401.24 614.522L528.141 687.791L591.115 651.193L590.205 650.565ZM591.161 576.967L590.688 576.694L589.704 577.281L590.168 577.549L591.161 576.967Z" fill="#C9C9C9"/>
<path fill-rule="evenodd" clip-rule="evenodd" d="M400.694 613.948L400.695 613.703L401.487 613.251L401.695 613.372L528.596 686.641L528.193 832.448L528.192 832.786L527.498 833.202L527.191 833.025L466.01 797.706L467.082 797.17L527.194 831.872L527.594 687.218L401.692 614.525L401.42 708.099L400.422 707.655L400.694 613.948ZM422.957 772.852L458.241 793.221L459.312 792.685L424.028 772.316L422.957 772.852Z" fill="#C9C9C9"/>
<path fill-rule="evenodd" clip-rule="evenodd" d="M843.926 738.682L843.468 738.948L717.404 812.211L717 958.013L717 958.083L717.904 958.644L717.999 958.589L813.643 903.004L812.674 902.411L718.002 957.431L718.402 812.788L843.465 740.106L843.225 826.696L844.226 826.419L844.466 739.524L844.467 739.174L843.892 739.507L843.926 738.682Z" fill="#C9C9C9"/>
<path fill-rule="evenodd" clip-rule="evenodd" d="M654.272 702.403L591.454 738.911L590.91 739.227L590.91 739.751L591.455 740.066L718.356 813.335L844.425 740.069L844.464 740.047L844.464 738.937L844.423 738.913L780.756 702.153L779.709 702.704L843.427 739.493L718.354 812.18L592.452 739.487L655.256 702.988L654.272 702.403Z" fill="#C9C9C9"/>
<path fill-rule="evenodd" clip-rule="evenodd" d="M590.915 739.494L590.915 739.247L591.706 738.796L591.916 738.917L718.817 812.186L718.413 957.993L718.413 958.331L717.718 958.747L717.412 958.57L590.491 885.301L590.915 739.494ZM717.815 812.763L591.913 740.07L591.493 884.724L717.415 957.417L717.815 812.763Z" fill="#C9C9C9"/>
<path fill-rule="evenodd" clip-rule="evenodd" d="M653.261 394.48L653.718 394.214L653.684 395.04L654.26 394.707L654.259 395.056L654.012 484.314L653.011 484.803L653.258 395.638L528.195 468.32L527.795 612.963L591.484 575.949L591.439 577.132L527.792 614.121L527.696 614.177L526.793 613.615L526.793 613.545L527.197 467.744L653.261 394.48Z" fill="#C9C9C9"/>
<path fill-rule="evenodd" clip-rule="evenodd" d="M401.25 394.444L464.155 357.886L465.231 358.417L402.248 395.02L528.151 467.713L653.223 395.026L589.335 358.139L590.339 357.564L654.22 394.447L654.261 394.471L654.26 395.58L654.221 395.603L528.152 468.869L401.252 395.6L400.706 395.285L400.706 394.76L401.25 394.444Z" fill="#C9C9C9"/>
<path fill-rule="evenodd" clip-rule="evenodd" d="M400.711 395.026L400.711 394.779L401.503 394.329L401.712 394.45L528.613 467.719L528.21 613.526L528.209 613.866L527.516 614.28L527.208 614.102L400.287 540.833L400.711 395.026ZM527.611 468.295L401.709 395.602L401.289 540.257L527.211 612.95L527.611 468.295Z" fill="#C9C9C9"/>
<g opacity="0.2">
<path opacity="0.4" d="M422.353 431.109L429.889 435.451L429.853 444.093L422.335 439.751L422.353 431.109Z" stroke="#C9C9C9"/>
<path opacity="0.4" d="M422.312 445.252L429.847 449.594L429.811 458.236L422.294 453.895L422.312 445.252Z" stroke="#C9C9C9"/>
<path opacity="0.4" d="M422.109 518.733L429.624 523.074L429.607 531.715L422.091 527.374L422.109 518.733Z" stroke="#C9C9C9"/>
<path opacity="0.4" d="M435.621 526.535L443.138 530.877L443.102 539.519L435.585 535.178L435.621 526.535Z" stroke="#C9C9C9"/>
<path opacity="0.4" d="M449.906 534.786L457.423 539.127L457.387 547.769L449.87 543.428L449.906 534.786Z" stroke="#C9C9C9"/>
<path opacity="0.4" d="M463.399 542.568L470.915 546.91L470.879 555.553L463.363 551.211L463.399 542.568Z" stroke="#C9C9C9"/>
<path opacity="0.4" d="M499.51 489.817L507.025 494.157L507.008 502.799L499.492 498.458L499.51 489.817Z" stroke="#C9C9C9"/>
<path opacity="0.4" d="M499.551 475.674L507.067 480.014L507.049 488.655L499.533 484.315L499.551 475.674Z" stroke="#C9C9C9"/>
<path opacity="0.4" d="M437.493 486.681L437.493 486.681L437.496 486.683C437.878 486.902 438.258 487.306 438.544 487.8C438.83 488.293 438.992 488.827 438.992 489.277C438.992 489.728 438.837 489.913 438.727 489.976C438.617 490.04 438.379 490.08 437.995 489.86C437.6 489.629 437.22 489.223 436.938 488.735C436.656 488.246 436.497 487.717 436.497 487.265H436.497L436.497 487.256C436.489 486.805 436.643 486.619 436.75 486.556C436.857 486.494 437.097 486.45 437.493 486.681Z" stroke="#C9C9C9"/>
<path opacity="0.4" d="M443.692 490.257L443.692 490.257L443.695 490.259C444.076 490.478 444.456 490.885 444.742 491.383C445.029 491.88 445.191 492.414 445.191 492.853C445.191 493.305 445.035 493.487 444.928 493.548C444.818 493.61 444.574 493.649 444.175 493.417C443.779 493.186 443.399 492.78 443.117 492.291C442.835 491.802 442.676 491.272 442.676 490.821C442.676 490.383 442.83 490.197 442.942 490.132C443.054 490.068 443.298 490.027 443.692 490.257Z" stroke="#C9C9C9"/>
<path opacity="0.4" d="M450.152 493.994L450.152 493.994L450.156 493.996C450.551 494.226 450.931 494.636 451.214 495.129C451.497 495.622 451.656 496.152 451.656 496.592C451.656 497.044 451.5 497.226 451.392 497.287C451.282 497.349 451.038 497.389 450.64 497.156L450.64 497.156L450.637 497.154C450.254 496.935 449.874 496.531 449.589 496.037C449.303 495.544 449.14 495.01 449.14 494.56C449.14 494.127 449.296 493.939 449.413 493.872C449.529 493.806 449.773 493.768 450.152 493.994Z" stroke="#C9C9C9"/>
<path opacity="0.4" d="M456.348 497.57L456.348 497.57L456.355 497.574C456.738 497.794 457.118 498.198 457.403 498.692C457.689 499.185 457.852 499.719 457.852 500.168C457.852 500.62 457.696 500.805 457.586 500.868C457.476 500.932 457.238 500.972 456.855 500.752C456.459 500.521 456.079 500.115 455.798 499.627C455.515 499.137 455.357 498.608 455.357 498.157C455.357 497.704 455.513 497.513 455.624 497.448C455.732 497.385 455.966 497.343 456.348 497.57Z" stroke="#C9C9C9"/>
<path opacity="0.4" d="M514.352 591.598L515.1 592.03L515.102 591.167L515.427 475.521L515.428 475.231L515.177 475.087L414.549 416.99L413.801 416.558L413.799 417.421L413.474 533.067L413.473 533.356L413.724 533.501L514.352 591.598ZM412.703 414.67L516.54 474.629L516.198 593.938L412.361 533.979L412.703 414.67Z" stroke="#C9C9C9"/>
</g>
<g opacity="0.2">
<path opacity="0.4" d="M612.557 556.544L620.092 560.886L620.056 569.528L612.539 565.187L612.557 556.544Z" stroke="#C9C9C9"/>
<path opacity="0.4" d="M612.515 570.688L620.05 575.03L620.015 583.672L612.497 579.33L612.515 570.688Z" stroke="#C9C9C9"/>
<path opacity="0.4" d="M612.31 644.169L619.826 648.51L619.808 657.151L612.292 652.81L612.31 644.169Z" stroke="#C9C9C9"/>
<path opacity="0.4" d="M625.823 651.971L633.34 656.312L633.304 664.955L625.787 660.614L625.823 651.971Z" stroke="#C9C9C9"/>
<path opacity="0.4" d="M640.109 660.221L647.626 664.563L647.59 673.205L640.073 668.864L640.109 660.221Z" stroke="#C9C9C9"/>
<path opacity="0.4" d="M653.599 668.004L661.116 672.345L661.08 680.988L653.564 676.647L653.599 668.004Z" stroke="#C9C9C9"/>
<path opacity="0.4" d="M689.714 615.252L697.23 619.593L697.212 628.234L689.696 623.893L689.714 615.252Z" stroke="#C9C9C9"/>
<path opacity="0.4" d="M689.754 601.109L697.269 605.45L697.251 614.091L689.736 609.75L689.754 601.109Z" stroke="#C9C9C9"/>
<path opacity="0.4" d="M627.695 612.116L627.695 612.116L627.698 612.118C628.08 612.338 628.46 612.742 628.746 613.236C629.032 613.729 629.195 614.263 629.195 614.712C629.195 615.163 629.039 615.349 628.929 615.412C628.819 615.475 628.581 615.516 628.197 615.296C627.802 615.064 627.422 614.659 627.14 614.17C626.858 613.681 626.699 613.152 626.699 612.701H626.699L626.699 612.691C626.691 612.241 626.845 612.054 626.952 611.992C627.059 611.929 627.299 611.886 627.695 612.116Z" stroke="#C9C9C9"/>
<path opacity="0.4" d="M633.895 615.693L633.895 615.693L633.898 615.694C634.279 615.913 634.659 616.321 634.946 616.819C635.232 617.316 635.395 617.85 635.395 618.289C635.395 618.741 635.239 618.923 635.131 618.983C635.021 619.045 634.777 619.085 634.379 618.853C633.982 618.621 633.602 618.215 633.32 617.726C633.038 617.237 632.879 616.708 632.879 616.257C632.879 615.818 633.033 615.632 633.145 615.568C633.257 615.504 633.501 615.463 633.895 615.693Z" stroke="#C9C9C9"/>
<path opacity="0.4" d="M640.352 619.429L640.352 619.429L640.356 619.432C640.751 619.662 641.131 620.072 641.414 620.565C641.697 621.058 641.856 621.587 641.856 622.028C641.856 622.48 641.7 622.662 641.592 622.722C641.482 622.784 641.238 622.824 640.84 622.592L640.84 622.591L640.837 622.59C640.454 622.37 640.074 621.966 639.789 621.472C639.503 620.979 639.34 620.445 639.34 619.996C639.34 619.562 639.496 619.374 639.613 619.308C639.729 619.242 639.973 619.203 640.352 619.429Z" stroke="#C9C9C9"/>
<path opacity="0.4" d="M646.549 623.006L646.549 623.006L646.556 623.01C646.939 623.23 647.319 623.634 647.604 624.127C647.89 624.621 648.053 625.155 648.053 625.604C648.053 626.055 647.897 626.241 647.788 626.304C647.677 626.367 647.439 626.407 647.056 626.188C646.66 625.956 646.28 625.551 645.999 625.062C645.717 624.573 645.558 624.044 645.558 623.592C645.558 623.14 645.714 622.949 645.825 622.884C645.933 622.821 646.167 622.778 646.549 623.006Z" stroke="#C9C9C9"/>
<path opacity="0.4" d="M704.553 717.034L705.301 717.465L705.303 716.602L705.628 600.957L705.629 600.667L705.378 600.522L604.75 542.425L604.002 541.993L604 542.857L603.675 658.502L603.674 658.792L603.925 658.937L704.553 717.034ZM602.904 540.106L706.741 600.065L706.399 719.373L602.562 659.414L602.904 540.106Z" stroke="#C9C9C9"/>
</g>
<g opacity="0.2">
<path opacity="0.4" d="M612.557 775.467L620.092 779.808L620.056 788.451L612.539 784.109L612.557 775.467Z" stroke="#C9C9C9"/>
<path opacity="0.4" d="M612.515 789.61L620.05 793.952L620.015 802.594L612.497 798.252L612.515 789.61Z" stroke="#C9C9C9"/>
<path opacity="0.4" d="M612.31 863.091L619.826 867.432L619.808 876.073L612.292 871.732L612.31 863.091Z" stroke="#C9C9C9"/>
<path opacity="0.4" d="M625.823 870.893L633.34 875.234L633.304 883.877L625.787 879.536L625.823 870.893Z" stroke="#C9C9C9"/>
<path opacity="0.4" d="M640.109 879.143L647.626 883.485L647.59 892.127L640.073 887.786L640.109 879.143Z" stroke="#C9C9C9"/>
<path opacity="0.4" d="M653.599 886.926L661.116 891.268L661.08 899.91L653.564 895.569L653.599 886.926Z" stroke="#C9C9C9"/>
<path opacity="0.4" d="M689.714 834.175L697.23 838.515L697.212 847.157L689.696 842.816L689.714 834.175Z" stroke="#C9C9C9"/>
<path opacity="0.4" d="M689.754 820.031L697.269 824.372L697.251 833.013L689.736 828.673L689.754 820.031Z" stroke="#C9C9C9"/>
<path opacity="0.4" d="M627.695 831.038L627.695 831.039L627.698 831.04C628.08 831.26 628.46 831.664 628.746 832.158C629.032 832.651 629.195 833.185 629.195 833.634C629.195 834.086 629.039 834.271 628.929 834.334C628.819 834.398 628.581 834.438 628.197 834.218C627.802 833.986 627.422 833.581 627.14 833.092C626.858 832.603 626.699 832.074 626.699 831.623H626.699L626.699 831.614C626.691 831.163 626.845 830.976 626.952 830.914C627.059 830.851 627.299 830.808 627.695 831.038Z" stroke="#C9C9C9"/>
<path opacity="0.4" d="M633.895 834.615L633.895 834.615L633.898 834.617C634.279 834.835 634.659 835.243 634.946 835.741C635.232 836.238 635.395 836.772 635.395 837.211C635.395 837.663 635.239 837.845 635.131 837.906C635.021 837.968 634.777 838.007 634.379 837.775C633.982 837.544 633.602 837.138 633.32 836.649C633.038 836.159 632.879 835.63 632.879 835.179C632.879 834.74 633.033 834.554 633.145 834.49C633.257 834.426 633.501 834.385 633.895 834.615Z" stroke="#C9C9C9"/>
<path opacity="0.4" d="M640.352 838.351L640.352 838.351L640.356 838.354C640.751 838.584 641.131 838.994 641.414 839.487C641.697 839.98 641.856 840.509 641.856 840.95C641.856 841.402 641.7 841.584 641.592 841.644C641.482 841.706 641.238 841.746 640.84 841.514L640.84 841.514L640.837 841.512C640.454 841.292 640.074 840.888 639.789 840.394C639.503 839.901 639.34 839.367 639.34 838.918C639.34 838.484 639.496 838.296 639.613 838.23C639.729 838.164 639.973 838.125 640.352 838.351Z" stroke="#C9C9C9"/>
<path opacity="0.4" d="M646.549 841.928L646.549 841.928L646.556 841.932C646.939 842.152 647.319 842.556 647.604 843.049C647.89 843.543 648.053 844.077 648.053 844.526C648.053 844.977 647.897 845.163 647.788 845.226C647.677 845.289 647.439 845.329 647.056 845.11C646.66 844.878 646.28 844.473 645.999 843.984C645.717 843.495 645.558 842.966 645.558 842.515C645.558 842.062 645.714 841.871 645.825 841.806C645.933 841.743 646.167 841.701 646.549 841.928Z" stroke="#C9C9C9"/>
<path opacity="0.4" d="M704.553 935.956L705.301 936.387L705.303 935.524L705.628 819.879L705.629 819.589L705.378 819.444L604.75 761.347L604.002 760.916L604 761.779L603.675 877.424L603.674 877.714L603.925 877.859L704.553 935.956ZM602.904 759.028L706.741 818.987L706.399 938.296L602.562 878.336L602.904 759.028Z" stroke="#C9C9C9"/>
</g>
<g opacity="0.2">
<path opacity="0.4" d="M422.357 649.412L429.892 653.753L429.856 662.396L422.339 658.054L422.357 649.412Z" stroke="#C9C9C9"/>
<path opacity="0.4" d="M422.313 663.555L429.848 667.897L429.812 676.539L422.295 672.197L422.313 663.555Z" stroke="#C9C9C9"/>
<path opacity="0.4" d="M499.512 708.12L507.028 712.46L507.01 721.101L499.494 716.761L499.512 708.12Z" stroke="#C9C9C9"/>
<path opacity="0.4" d="M499.55 693.976L507.066 698.317L507.048 706.958L499.533 702.618L499.55 693.976Z" stroke="#C9C9C9"/>
<path opacity="0.4" d="M437.495 704.984L437.495 704.984L437.498 704.985C437.881 705.205 438.261 705.609 438.546 706.103C438.832 706.596 438.995 707.13 438.995 707.579C438.995 708.031 438.839 708.216 438.729 708.279C438.619 708.343 438.381 708.383 437.998 708.163C437.602 707.931 437.222 707.526 436.941 707.037C436.658 706.548 436.499 706.019 436.499 705.568H436.5L436.499 705.559C436.491 705.108 436.645 704.921 436.752 704.859C436.859 704.796 437.1 704.753 437.495 704.984Z" stroke="#C9C9C9"/>
<path opacity="0.4" d="M443.69 708.56L443.69 708.56L443.693 708.562C444.074 708.78 444.454 709.188 444.741 709.686C445.027 710.183 445.189 710.717 445.189 711.156C445.189 711.608 445.033 711.79 444.926 711.851C444.816 711.913 444.572 711.952 444.173 711.72C443.777 711.489 443.397 711.083 443.115 710.594C442.833 710.104 442.674 709.575 442.674 709.124C442.674 708.685 442.828 708.499 442.94 708.435C443.052 708.371 443.296 708.33 443.69 708.56Z" stroke="#C9C9C9"/>
<path opacity="0.4" d="M450.147 712.296L450.147 712.296L450.151 712.299C450.545 712.529 450.926 712.939 451.209 713.432C451.492 713.925 451.65 714.454 451.65 714.895C451.65 715.347 451.494 715.529 451.387 715.589C451.277 715.651 451.033 715.691 450.634 715.459L450.634 715.459L450.632 715.457C450.249 715.237 449.869 714.833 449.583 714.34C449.298 713.846 449.135 713.312 449.135 712.863C449.135 712.429 449.291 712.241 449.407 712.175C449.524 712.109 449.768 712.07 450.147 712.296Z" stroke="#C9C9C9"/>
<path opacity="0.4" d="M456.35 715.873L456.35 715.873L456.357 715.877C456.74 716.097 457.12 716.501 457.406 716.994C457.691 717.488 457.854 718.022 457.854 718.471C457.854 718.922 457.698 719.108 457.589 719.171C457.478 719.234 457.24 719.274 456.857 719.054C456.461 718.823 456.082 718.418 455.8 717.929C455.518 717.44 455.359 716.911 455.359 716.459C455.359 716.007 455.515 715.816 455.627 715.751C455.734 715.688 455.969 715.645 456.35 715.873Z" stroke="#C9C9C9"/>
<path opacity="0.4" d="M514.35 809.901L515.098 810.332L515.1 809.469L515.425 693.824L515.426 693.534L515.175 693.389L414.547 635.292L413.799 634.861L413.797 635.724L413.472 751.369L413.471 751.659L413.722 751.804L514.35 809.901ZM412.701 632.973L516.538 692.932L516.195 812.241L412.359 752.281L412.701 632.973Z" stroke="#C9C9C9"/>
</g>
<g opacity="0.2">
<path opacity="0.4" d="M422.357 211.995L429.892 216.337L429.856 224.979L422.339 220.637L422.357 211.995Z" stroke="#C9C9C9"/>
<path opacity="0.4" d="M422.313 226.139L429.848 230.48L429.812 239.123L422.295 234.781L422.313 226.139Z" stroke="#C9C9C9"/>
<path opacity="0.4" d="M422.111 299.62L429.626 303.96L429.609 312.602L422.093 308.261L422.111 299.62Z" stroke="#C9C9C9"/>
<path opacity="0.4" d="M435.62 307.421L443.137 311.763L443.101 320.405L435.584 316.064L435.62 307.421Z" stroke="#C9C9C9"/>
<path opacity="0.4" d="M449.909 315.672L457.426 320.013L457.39 328.656L449.873 324.315L449.909 315.672Z" stroke="#C9C9C9"/>
<path opacity="0.4" d="M463.401 323.455L470.917 327.796L470.882 336.439L463.365 332.097L463.401 323.455Z" stroke="#C9C9C9"/>
<path opacity="0.4" d="M499.512 270.703L507.028 275.044L507.01 283.685L499.494 279.344L499.512 270.703Z" stroke="#C9C9C9"/>
<path opacity="0.4" d="M499.55 256.56L507.066 260.901L507.048 269.542L499.533 265.201L499.55 256.56Z" stroke="#C9C9C9"/>
<path opacity="0.4" d="M437.495 267.567L437.495 267.567L437.498 267.569C437.881 267.789 438.261 268.193 438.546 268.686C438.832 269.18 438.995 269.714 438.995 270.163C438.995 270.614 438.839 270.8 438.729 270.863C438.619 270.926 438.381 270.966 437.998 270.746C437.602 270.515 437.222 270.11 436.941 269.621C436.658 269.132 436.499 268.603 436.499 268.151H436.5L436.499 268.142C436.491 267.691 436.645 267.505 436.752 267.443C436.859 267.38 437.1 267.336 437.495 267.567Z" stroke="#C9C9C9"/>
<path opacity="0.4" d="M443.69 271.144L443.69 271.144L443.693 271.145C444.074 271.364 444.454 271.772 444.741 272.269C445.027 272.767 445.189 273.301 445.189 273.74C445.189 274.192 445.033 274.374 444.926 274.434C444.816 274.496 444.572 274.536 444.173 274.303C443.777 274.072 443.397 273.666 443.115 273.177C442.833 272.688 442.674 272.159 442.674 271.707C442.674 271.269 442.828 271.083 442.94 271.019C443.052 270.955 443.296 270.914 443.69 271.144Z" stroke="#C9C9C9"/>
<path opacity="0.4" d="M450.147 274.88L450.147 274.88L450.151 274.883C450.545 275.113 450.926 275.523 451.209 276.015C451.492 276.509 451.65 277.038 451.65 277.479C451.65 277.931 451.494 278.113 451.387 278.173C451.277 278.235 451.033 278.275 450.634 278.042L450.634 278.042L450.632 278.041C450.249 277.821 449.869 277.417 449.583 276.923C449.298 276.43 449.135 275.896 449.135 275.446C449.135 275.013 449.291 274.825 449.407 274.759C449.524 274.693 449.768 274.654 450.147 274.88Z" stroke="#C9C9C9"/>
<path opacity="0.4" d="M456.35 278.457L456.35 278.457L456.357 278.461C456.74 278.68 457.12 279.084 457.406 279.578C457.691 280.072 457.854 280.605 457.854 281.055C457.854 281.506 457.698 281.691 457.589 281.755C457.478 281.818 457.24 281.858 456.857 281.638C456.461 281.407 456.082 281.001 455.8 280.513C455.518 280.024 455.359 279.495 455.359 279.043C455.359 278.591 455.515 278.399 455.627 278.334C455.734 278.272 455.969 278.229 456.35 278.457Z" stroke="#C9C9C9"/>
<path opacity="0.4" d="M514.35 372.485L515.098 372.916L515.1 372.053L515.425 256.407L515.426 256.118L515.175 255.973L414.547 197.876L413.799 197.444L413.797 198.308L413.472 313.953L413.471 314.243L413.722 314.387L514.35 372.485ZM412.701 195.557L516.538 255.516L516.195 374.824L412.359 314.865L412.701 195.557Z" stroke="#C9C9C9"/>
</g>
<g opacity="0.2">
<path opacity="0.4" d="M145.252 457.612L152.787 461.954L152.751 470.596L145.234 466.254L145.252 457.612Z" stroke="#C9C9C9"/>
<path opacity="0.4" d="M145.212 471.755L152.747 476.097L152.712 484.739L145.194 480.398L145.212 471.755Z" stroke="#C9C9C9"/>
<path opacity="0.4" d="M145.008 545.236L152.524 549.577L152.506 558.218L144.99 553.878L145.008 545.236Z" stroke="#C9C9C9"/>
<path opacity="0.4" d="M158.518 553.038L166.035 557.38L165.999 566.022L158.482 561.681L158.518 553.038Z" stroke="#C9C9C9"/>
<path opacity="0.4" d="M172.805 561.289L180.322 565.63L180.286 574.273L172.769 569.931L172.805 561.289Z" stroke="#C9C9C9"/>
<path opacity="0.4" d="M186.298 569.071L193.814 573.413L193.779 582.055L186.262 577.714L186.298 569.071Z" stroke="#C9C9C9"/>
<path opacity="0.4" d="M222.409 516.32L229.925 520.661L229.907 529.302L222.391 524.961L222.409 516.32Z" stroke="#C9C9C9"/>
<path opacity="0.4" d="M222.451 502.177L229.966 506.517L229.948 515.159L222.433 510.818L222.451 502.177Z" stroke="#C9C9C9"/>
<path opacity="0.4" d="M160.39 513.184L160.39 513.184L160.393 513.186C160.776 513.405 161.156 513.809 161.441 514.303C161.727 514.796 161.89 515.33 161.89 515.78C161.89 516.231 161.734 516.416 161.624 516.48C161.514 516.543 161.276 516.583 160.893 516.363C160.497 516.132 160.117 515.726 159.836 515.238C159.553 514.749 159.394 514.22 159.394 513.768H159.395L159.394 513.759C159.386 513.308 159.54 513.122 159.647 513.059C159.754 512.997 159.995 512.953 160.39 513.184Z" stroke="#C9C9C9"/>
<path opacity="0.4" d="M166.593 516.76L166.593 516.76L166.596 516.762C166.977 516.981 167.357 517.389 167.644 517.886C167.93 518.384 168.093 518.918 168.093 519.356C168.093 519.808 167.937 519.99 167.829 520.051C167.719 520.113 167.475 520.153 167.077 519.92C166.681 519.689 166.3 519.283 166.018 518.794C165.736 518.305 165.577 517.776 165.577 517.324C165.577 516.886 165.731 516.7 165.843 516.636C165.956 516.571 166.199 516.53 166.593 516.76Z" stroke="#C9C9C9"/>
<path opacity="0.4" d="M173.048 520.497L173.048 520.497L173.052 520.499C173.447 520.729 173.827 521.139 174.11 521.632C174.393 522.125 174.552 522.655 174.552 523.095C174.552 523.547 174.396 523.729 174.288 523.79C174.178 523.852 173.934 523.892 173.536 523.659L173.536 523.659L173.533 523.657C173.15 523.438 172.77 523.034 172.485 522.54C172.199 522.047 172.036 521.513 172.036 521.063C172.036 520.63 172.192 520.442 172.309 520.375C172.425 520.309 172.669 520.271 173.048 520.497Z" stroke="#C9C9C9"/>
<path opacity="0.4" d="M179.247 524.073L179.247 524.073L179.254 524.077C179.637 524.297 180.017 524.701 180.303 525.195C180.588 525.688 180.751 526.222 180.751 526.671C180.751 527.123 180.595 527.308 180.486 527.371C180.375 527.435 180.137 527.475 179.754 527.255C179.358 527.024 178.979 526.618 178.697 526.13C178.415 525.64 178.256 525.111 178.256 524.66C178.256 524.207 178.412 524.016 178.524 523.951C178.631 523.888 178.866 523.846 179.247 524.073Z" stroke="#C9C9C9"/>
<path opacity="0.4" d="M237.251 618.101L237.999 618.533L238.001 617.67L238.327 502.024L238.327 501.735L238.077 501.59L137.448 443.493L136.701 443.061L136.698 443.924L136.373 559.57L136.372 559.86L136.623 560.004L237.251 618.101ZM135.603 441.173L239.439 501.133L239.097 620.441L135.261 560.482L135.603 441.173Z" stroke="#C9C9C9"/>
</g>
<path fill-rule="evenodd" clip-rule="evenodd" d="M376.159 420.984L376.613 420.72L376.579 421.544L377.158 421.209L377.157 421.56L376.794 552.791L375.796 552.125L376.156 422.142L251.093 494.824L250.693 639.467L375.756 566.785L375.775 559.916L376.773 560.515L376.754 567.362L250.69 640.625L250.593 640.682L249.691 640.121L249.692 640.049L250.095 494.248L376.159 420.984Z" fill="#C9C9C9"/>
<path fill-rule="evenodd" clip-rule="evenodd" d="M247.975 350.034L248.088 350.077L125.148 421.524L251.05 494.217L376.123 421.53L348.75 405.726L349.73 405.137L377.119 420.951L377.161 420.974L377.16 422.084L377.121 422.106L251.052 495.373L124.152 422.104L123.606 421.789V421.264L124.15 420.948L248.075 348.928L247.975 350.034ZM282.791 366.488L254.73 350.286V351.441L282.791 367.642V366.488Z" fill="#C9C9C9"/>
<path d="M256.933 249.658L256.933 249.658L308.06 220.112L308.061 220.111C311.465 218.133 313.593 214.474 313.593 210.514V148.028C313.593 141.562 317.074 135.529 322.671 132.285L376.805 100.931C382.422 97.6869 389.385 97.6678 395 100.91L395.001 100.911L492.723 157.077C492.723 157.077 492.723 157.078 492.723 157.078C498.36 160.321 501.861 166.354 501.861 172.86V201.126C501.861 203.085 500.256 204.69 498.296 204.69C496.337 204.69 494.732 203.085 494.732 201.126V172.86C494.732 168.902 492.605 165.221 489.178 163.262C489.177 163.262 489.177 163.261 489.177 163.261L391.455 107.075C388.05 105.117 383.795 105.116 380.388 107.096L326.254 138.451L326.254 138.451C322.85 140.43 320.721 144.089 320.721 148.028V210.535C320.721 217.021 317.24 223.054 311.624 226.297L311.624 226.297L260.497 255.844L260.495 255.844C257.091 257.823 254.963 261.482 254.963 265.441V417.563C254.963 419.519 253.362 421.106 251.399 421.106C249.44 421.106 247.835 419.501 247.835 417.542V265.421C247.835 258.934 251.316 252.902 256.933 249.658Z" stroke="#C9C9C9"/>
<path opacity="0.2" d="M248.778 438.972L249.029 439.117L249.279 438.972L282.498 419.656L283.245 419.222L282.497 418.791L254.211 402.465L253.96 402.32L253.71 402.466L220.491 421.782L219.744 422.215L220.492 422.647L248.778 438.972ZM215.61 422.212L253.962 399.918L287.409 419.225L249.057 441.52L215.61 422.212Z" stroke="#C9C9C9"/>
<path fill-rule="evenodd" clip-rule="evenodd" d="M123.608 421.531L123.609 421.284L124.4 420.833L124.61 420.954L251.51 494.223L251.107 640.03L251.106 640.366L250.41 640.783L250.105 640.607L202.142 612.919L203.402 612.491L250.109 639.454L250.509 494.8L124.606 422.107L124.35 510.506L123.349 510.722L123.608 421.531ZM196.006 608.221L195.15 608.882L155.577 586.037L156.574 585.458L196.006 608.221Z" fill="#C9C9C9"/>
<path fill-rule="evenodd" clip-rule="evenodd" d="M843.468 520.025L843.926 519.759L843.892 520.584L844.467 520.252L844.466 520.602L844.259 595.653L843.258 595.808L843.465 521.184L718.402 593.865L718.002 738.508L823.108 677.425L824.077 678.018L717.999 739.667L717.904 739.722L717 739.16L717 739.09L717.404 593.289L843.468 520.025Z" fill="#C9C9C9"/>
<path fill-rule="evenodd" clip-rule="evenodd" d="M844.421 519.991L844.464 520.016L844.464 521.123L844.423 521.147L718.354 594.413L591.453 521.144L590.91 520.83L590.91 520.303L591.452 519.988L717.521 446.722L749.718 465.311V466.466L717.522 447.877L592.45 520.565L718.352 593.257L843.425 520.57L815.721 504.575L816.719 503.997L844.421 519.991Z" fill="#C9C9C9"/>
<path fill-rule="evenodd" clip-rule="evenodd" d="M590.915 520.571L590.915 520.323L591.706 519.873L591.916 519.994L718.817 593.263L718.413 739.07L718.413 739.408L717.718 739.824L717.412 739.647L590.491 666.378L590.915 520.571ZM717.815 593.84L591.913 521.147L591.493 665.801L717.415 738.494L717.815 593.84Z" fill="#C9C9C9"/>
<path fill-rule="evenodd" clip-rule="evenodd" d="M653.262 175.476L653.72 175.21L653.685 176.035L654.261 175.703L654.26 176.052L654.151 215.399L653.152 214.975L653.258 176.635L528.196 249.316L527.796 393.959L652.858 321.277L653.133 222.099L654.131 222.547L653.857 321.854L527.793 395.117L527.699 395.172L526.794 394.609L526.794 394.541L527.197 248.74L653.262 175.476Z" fill="#C9C9C9"/>
<path fill-rule="evenodd" clip-rule="evenodd" d="M654.262 175.466L654.221 175.442L624.214 158.117L623.252 158.716L653.224 176.021L528.152 248.708L402.25 176.016L456.634 144.41L455.682 143.806L401.251 175.439L400.707 175.755L400.707 176.28L401.253 176.595L528.153 249.864L654.223 176.598L654.261 176.575L654.262 175.466ZM557.097 120.52L557.169 119.407L527.32 102.173L462.29 139.966L463.263 140.557L527.322 103.328L557.097 120.52Z" fill="#C9C9C9"/>
<path fill-rule="evenodd" clip-rule="evenodd" d="M400.71 176.021L400.711 175.774L401.502 175.323L401.712 175.445L528.612 248.714L528.209 394.521L528.208 394.861L527.516 395.275L527.208 395.097L400.287 321.828L400.71 176.021ZM527.611 249.29L401.709 176.597L401.288 321.251L527.211 393.944L527.611 249.29Z" fill="#C9C9C9"/>
<path d="M313.873 874.5L313.875 874.5C316.914 876.246 320.299 877.109 323.708 877.109C327.137 877.109 330.588 876.225 333.695 874.457C333.696 874.456 333.697 874.456 333.698 874.455L467.51 797.003C473.658 793.443 477.366 787.083 477.409 779.965L477.409 779.963C477.474 772.845 473.853 766.421 467.747 762.775L468.004 762.345L467.747 762.775L423.636 736.418L423.635 736.418C421.773 735.301 419.382 735.906 418.263 737.772C417.146 739.634 417.751 742.024 419.616 743.144L313.873 874.5ZM313.873 874.5L254.638 840.692L254.638 840.692C248.471 837.177 244.631 830.555 244.631 823.46V798.01C244.631 793.741 242.325 789.751 238.634 787.606L238.632 787.605L91.3518 702.567L91.3515 702.567C85.1388 698.986 81.4308 692.562 81.4308 685.378C81.4308 678.193 85.1386 671.77 91.373 668.189L91.3738 668.188L221.981 592.835C221.982 592.835 221.982 592.835 221.982 592.835C223.866 591.756 226.258 592.404 227.336 594.265C228.415 596.149 227.766 598.541 225.904 599.619L95.2963 674.972C95.2963 674.972 95.2963 674.972 95.2963 674.972C91.5365 677.141 89.2973 681.043 89.2973 685.378C89.2973 689.712 91.5364 693.614 95.2961 695.782C95.2962 695.783 95.2963 695.783 95.2963 695.783L242.577 780.821C248.701 784.358 252.498 790.936 252.498 798.01V823.46C252.498 827.752 254.827 831.765 258.543 833.888L258.543 833.888L317.778 867.696L317.778 867.696C321.47 869.795 326.06 869.796 329.752 867.65L463.566 790.196C463.566 790.196 463.566 790.196 463.567 790.196C467.281 788.05 469.519 784.194 469.565 779.885L469.565 779.882C469.588 775.595 467.419 771.692 463.726 769.5L419.617 743.145L313.873 874.5Z" stroke="#C9C9C9"/>
<path d="M44.348 512.379L44.3457 512.38L33.2709 518.761L33.2703 518.761C32.6993 519.089 32.0657 519.179 31.5424 518.882C31.0178 518.584 30.7748 517.994 30.7737 517.336C30.7625 516.675 30.9923 515.972 31.3384 515.372C31.6854 514.771 32.1792 514.22 32.7513 513.891L44.348 512.379ZM44.348 512.379C44.9288 512.04 45.4174 511.489 45.7599 510.889C46.1022 510.288 46.3233 509.594 46.3233 508.939C46.3233 508.285 46.0889 507.691 45.5638 507.39C45.041 507.091 44.4069 507.184 43.8306 507.508L43.8261 507.51L32.7519 513.891L44.348 512.379ZM29.7147 511.506L29.7142 511.507C29.1432 511.835 28.5096 511.924 27.9862 511.627C27.4605 511.328 27.2175 510.737 27.2175 510.077C27.2175 509.42 27.4454 508.725 27.79 508.128C28.1346 507.531 28.6233 506.985 29.1953 506.657L29.7147 511.506ZM29.7147 511.506L36.8061 507.422C37.3785 507.093 37.8725 506.542 38.2196 505.94C38.5657 505.34 38.7955 504.638 38.7843 503.976C38.7832 503.319 38.5406 502.728 38.013 502.432C37.4868 502.138 36.8529 502.236 36.2843 502.574C36.2831 502.575 36.282 502.575 36.2809 502.576L29.1957 506.657L29.7147 511.506ZM55.1439 500.988L55.1454 500.987C55.7141 500.66 56.3451 500.567 56.8662 500.868C57.3875 501.169 57.6217 501.762 57.6217 502.416C57.6217 503.082 57.3947 503.782 57.0497 504.383C56.7052 504.982 56.2166 505.528 55.6449 505.857L55.1439 500.988ZM55.1439 500.988L50.5122 503.669L55.1439 500.988ZM73.4879 471.488V471.49L73.5895 503.839C73.5895 503.839 73.5895 503.84 73.5895 503.84C73.5892 504.911 73.2121 506.13 72.5769 507.231C71.9413 508.333 71.0739 509.271 70.1421 509.806L70.1412 509.807L3.57132 548.233C3.57118 548.233 3.57105 548.233 3.57091 548.233C2.63404 548.771 1.90194 548.763 1.43761 548.501C0.97617 548.239 0.60161 547.625 0.601613 546.553L0.601608 546.551L0.5 514.202C0.5 514.202 0.5 514.202 0.5 514.202C0.500181 513.142 0.876999 511.922 1.51291 510.817C2.14894 509.712 3.01642 508.77 3.94739 508.235L3.94835 508.234L70.5182 469.808C70.5185 469.808 70.5189 469.808 70.5192 469.808C71.4538 469.271 72.1854 469.282 72.6507 469.548C73.1143 469.812 73.4879 470.428 73.4879 471.488ZM44.3045 503.053L44.3051 503.053L66.9012 490.027C67.4751 489.698 67.964 489.145 68.3079 488.544C68.6519 487.943 68.8794 487.243 68.8794 486.586C68.8794 485.928 68.6369 485.334 68.108 485.038C67.5817 484.743 66.9477 484.842 66.3789 485.18C66.3779 485.18 66.3769 485.181 66.3759 485.182L43.8064 498.203C43.8062 498.203 43.806 498.203 43.8059 498.203C43.2339 498.532 42.7452 499.078 42.4007 499.674C42.056 500.271 41.8282 500.967 41.8282 501.624C41.8282 502.278 42.0623 502.871 42.5837 503.172C43.1048 503.473 43.7358 503.38 44.3045 503.053ZM8.86508 523.536L8.86606 523.536L24.2073 514.677C24.2074 514.676 24.2076 514.676 24.2078 514.676C24.7799 514.347 25.2737 513.796 25.6207 513.195C25.9668 512.595 26.1966 511.893 26.1854 511.231C26.1843 510.574 25.9418 509.982 25.4141 509.687C24.8878 509.392 24.2538 509.491 23.6851 509.829C23.684 509.829 23.683 509.83 23.682 509.831L8.34665 518.686C8.34632 518.687 8.34599 518.687 8.34566 518.687C7.77393 519.016 7.28539 519.561 6.94092 520.158C6.59627 520.755 6.36843 521.45 6.36843 522.107C6.36843 522.767 6.61139 523.358 7.13713 523.657C7.66049 523.954 8.29412 523.864 8.86508 523.536ZM51.0118 508.539L55.6435 505.857L50.5108 503.67C49.9391 503.999 49.4505 504.545 49.106 505.144C48.761 505.744 48.534 506.444 48.534 507.11C48.534 507.765 48.7682 508.358 49.2895 508.659C49.8106 508.959 50.4417 508.866 51.0104 508.54L51.0118 508.539ZM62.3999 496.781L62.3984 496.781L60.0818 498.123L60.0804 498.123C59.5013 498.461 59.0075 499.01 58.6618 499.612C58.3174 500.211 58.094 500.908 58.1051 501.568C58.1062 502.22 58.3408 502.812 58.8647 503.112C59.3874 503.411 60.0215 503.319 60.5978 502.994L60.5979 502.994L60.6032 502.991L62.9183 501.651C62.9187 501.651 62.919 501.651 62.9194 501.65C63.4913 501.321 63.9849 500.771 64.3318 500.169C64.6779 499.569 64.9077 498.867 64.8965 498.205C64.8953 497.547 64.6523 496.958 64.1278 496.66C63.6045 496.363 62.9708 496.453 62.3999 496.781Z" stroke="#C9C9C9"/>
<path d="M911.128 511.078L911.126 511.08L900.051 517.46L900.05 517.461C899.479 517.789 898.846 517.879 898.322 517.581C897.798 517.283 897.555 516.694 897.554 516.036C897.543 515.374 897.772 514.672 898.118 514.072C898.465 513.471 898.959 512.92 899.531 512.591L911.128 511.078ZM911.128 511.078C911.709 510.74 912.197 510.189 912.54 509.589C912.882 508.988 913.103 508.294 913.103 507.639C913.103 506.984 912.869 506.391 912.344 506.09C911.821 505.791 911.187 505.883 910.611 506.208L910.606 506.21L899.532 512.59L911.128 511.078ZM896.495 510.206L896.494 510.206C895.923 510.534 895.29 510.624 894.766 510.327C894.241 510.028 893.998 509.437 893.998 508.777C893.998 508.12 894.225 507.424 894.57 506.828C894.915 506.231 895.403 505.685 895.975 505.357L896.495 510.206ZM896.495 510.206L903.586 506.122C904.159 505.793 904.653 505.242 905 504.64C905.346 504.04 905.576 503.338 905.564 502.676C905.563 502.019 905.321 501.427 904.793 501.132C904.267 500.837 903.633 500.936 903.064 501.274C903.063 501.274 903.062 501.275 903.061 501.276L895.976 505.356L896.495 510.206ZM921.924 499.688L921.925 499.687C922.494 499.36 923.125 499.267 923.646 499.568C924.168 499.869 924.402 500.462 924.402 501.116C924.402 501.782 924.175 502.482 923.83 503.082C923.485 503.682 922.997 504.227 922.425 504.556L921.924 499.688ZM921.924 499.688L917.292 502.369L921.924 499.688ZM940.268 470.188V470.189L940.37 502.539C940.37 502.539 940.37 502.54 940.37 502.54C940.369 503.61 939.992 504.83 939.357 505.931C938.721 507.033 937.854 507.971 936.922 508.506L936.921 508.507L870.351 546.933C870.351 546.933 870.351 546.933 870.351 546.933C869.414 547.471 868.682 547.463 868.218 547.2C867.756 546.939 867.382 546.325 867.382 545.253L867.382 545.251L867.28 512.902C867.28 512.902 867.28 512.902 867.28 512.901C867.28 511.841 867.657 510.622 868.293 509.517C868.929 508.411 869.796 507.469 870.727 506.935L870.728 506.934L937.298 468.508C937.299 468.508 937.299 468.508 937.299 468.508C938.234 467.971 938.965 467.982 939.431 468.247C939.894 468.511 940.268 469.128 940.268 470.188ZM911.085 501.753L911.085 501.752L933.681 488.727C934.255 488.398 934.744 487.845 935.088 487.244C935.432 486.643 935.659 485.943 935.659 485.286C935.659 484.627 935.417 484.034 934.888 483.737C934.362 483.443 933.728 483.542 933.159 483.879C933.158 483.88 933.157 483.881 933.156 483.881L910.586 496.903C910.586 496.903 910.586 496.903 910.586 496.903C910.014 497.232 909.525 497.778 909.181 498.374C908.836 498.971 908.608 499.666 908.608 500.324C908.608 500.978 908.842 501.571 909.364 501.872C909.885 502.172 910.516 502.08 911.085 501.753ZM875.645 522.236L875.646 522.236L890.987 513.376C890.987 513.376 890.988 513.376 890.988 513.376C891.56 513.047 892.054 512.496 892.401 511.895C892.747 511.295 892.977 510.592 892.965 509.931C892.964 509.274 892.722 508.682 892.194 508.386C891.668 508.092 891.034 508.191 890.465 508.528C890.464 508.529 890.463 508.53 890.462 508.53L875.127 517.386C875.126 517.386 875.126 517.387 875.126 517.387C874.554 517.716 874.065 518.261 873.721 518.858C873.376 519.454 873.148 520.15 873.148 520.807C873.148 521.467 873.391 522.058 873.917 522.357C874.441 522.654 875.074 522.564 875.645 522.236ZM917.792 507.239L922.424 504.557L917.291 502.37C916.719 502.699 916.231 503.244 915.886 503.844C915.541 504.444 915.314 505.144 915.314 505.81C915.314 506.465 915.548 507.057 916.07 507.358C916.591 507.659 917.222 507.566 917.79 507.239L917.792 507.239ZM929.18 495.48L929.178 495.481L926.862 496.822L926.86 496.823C926.281 497.161 925.788 497.71 925.442 498.312C925.097 498.911 924.874 499.607 924.885 500.267C924.886 500.92 925.121 501.512 925.645 501.812C926.167 502.111 926.802 502.018 927.378 501.694L927.378 501.694L927.383 501.691L929.698 500.351C929.699 500.351 929.699 500.35 929.699 500.35C930.271 500.021 930.765 499.47 931.112 498.869C931.458 498.269 931.688 497.567 931.677 496.905C931.675 496.247 931.432 495.658 930.908 495.36C930.384 495.063 929.751 495.152 929.18 495.48Z" stroke="#C9C9C9"/>
<path fill-rule="evenodd" clip-rule="evenodd" d="M165.676 533.299L165.006 532.912L164.677 533.104L123.574 556.988L123.435 604.518L123.434 604.755L124.228 605.213L124.433 605.095L165.536 581.21L165.675 533.68L165.676 533.299ZM164.673 534.262L124.572 557.564L124.436 603.936L164.538 580.634L164.673 534.262Z" fill="#C9C9C9"/>
<path fill-rule="evenodd" clip-rule="evenodd" d="M83.3868 532.868L82.5935 533.326L82.5928 533.564L82.4539 581.1L123.824 604.99L124.203 605.208L124.223 605.006L124.825 604.658L124.826 604.413L124.965 556.877L83.5945 532.988L83.3868 532.868ZM123.963 557.454L83.5912 534.141L83.4556 580.523L123.828 603.837L123.963 557.454Z" fill="#C9C9C9"/>
<path fill-rule="evenodd" clip-rule="evenodd" d="M165.585 533.245L165.399 533.138L124.029 509.248L82.9208 533.135L82.5889 533.328V534.098L82.9224 534.291L124.293 558.18L165.401 534.293L165.619 534.166H165.585V533.245ZM166.392 533.711V533.717L166.397 533.714L166.392 533.711ZM164.402 533.717L124.03 510.404L83.9191 533.711L124.291 557.025L164.402 533.717Z" fill="#C9C9C9"/>
<path d="M124.228 543.825L106.694 533.712L124.087 523.603L141.621 533.735L124.228 543.825Z" stroke="#C9C9C9"/>
<path d="M123.881 586.008L123.924 585.983L151.966 569.889L152.217 569.745L152.467 569.89L161.469 575.133L161.476 575.137L161.48 575.14M123.881 586.008L123.624 586.437C123.725 586.498 123.807 586.518 123.908 586.518C123.99 586.518 124.091 586.498 124.172 586.417L152.215 570.323L161.217 575.565C161.38 575.667 161.603 575.667 161.766 575.565L164.88 573.639M123.881 586.008L123.87 586.002L83.7114 563.25V563.119M123.881 586.008L83.7114 563.119M161.48 575.14L161.482 575.141C161.48 575.14 161.479 575.14 161.48 575.14ZM161.48 575.14C161.48 575.14 161.481 575.14 161.481 575.14C161.482 575.141 161.484 575.141 161.486 575.141C161.488 575.141 161.489 575.141 161.492 575.141C161.494 575.141 161.497 575.141 161.499 575.141C161.5 575.141 161.501 575.14 161.502 575.14C161.503 575.14 161.503 575.14 161.503 575.14M161.503 575.14L161.503 575.14L161.501 575.141C161.502 575.141 161.502 575.14 161.503 575.14C161.504 575.14 161.504 575.14 161.503 575.14ZM161.503 575.14L164.38 573.36M164.38 573.36V573.639H164.88M164.38 573.36V573.271L164.88 572.965V573.639M164.38 573.36L164.617 573.213L164.88 573.639M83.7114 563.119L123.662 585.734L123.91 585.874L124.157 585.733L152.2 569.639L152.208 569.634L152.214 569.63C152.213 569.63 152.213 569.63 152.214 569.63C152.214 569.63 152.214 569.63 152.215 569.63C152.217 569.629 152.221 569.629 152.225 569.629C152.228 569.629 152.23 569.629 152.231 569.629C152.233 569.629 152.235 569.63 152.236 569.63C152.236 569.63 152.236 569.63 152.237 569.63L83.7114 563.119Z" stroke="#C9C9C9"/>
<path fill-rule="evenodd" clip-rule="evenodd" d="M365.146 348.919L364.475 348.531L364.147 348.722L323.044 372.606L322.905 420.136L322.904 420.375L323.697 420.833L323.903 420.713L365.006 396.829L365.145 349.299L365.146 348.919ZM364.143 349.881L324.042 373.183L323.907 419.554L364.008 396.252L364.143 349.881Z" fill="#C9C9C9"/>
<path fill-rule="evenodd" clip-rule="evenodd" d="M282.857 348.487L282.064 348.945L282.063 349.184L281.924 396.719L323.295 420.609L323.672 420.827L323.692 420.625L324.296 420.276L324.297 420.033L324.435 372.497L283.065 348.607L282.857 348.487ZM323.434 373.073L283.062 349.76L282.926 396.143L323.298 419.456L323.434 373.073Z" fill="#C9C9C9"/>
<path fill-rule="evenodd" clip-rule="evenodd" d="M365.055 348.865L364.868 348.757L323.498 324.867L282.39 348.754L282.058 348.947V349.718L282.391 349.91L323.762 373.8L364.87 349.913L365.088 349.786H365.055V348.865ZM365.861 349.33V349.337L365.867 349.333L365.861 349.33ZM363.872 349.336L323.499 326.023L283.388 349.331L323.76 372.644L363.872 349.336Z" fill="#C9C9C9"/>
<path d="M323.697 359.445L306.163 349.332L323.556 339.223L341.09 349.355L323.697 359.445Z" stroke="#C9C9C9"/>
<path d="M323.347 390.034L323.39 390.009L351.432 373.915L351.683 373.771L351.933 373.916L360.935 379.159L360.942 379.163L360.946 379.166M323.347 390.034L323.09 390.463C323.192 390.524 323.273 390.544 323.374 390.544C323.456 390.544 323.557 390.524 323.639 390.442L351.681 374.348L360.683 379.591C360.846 379.693 361.069 379.693 361.232 379.591L364.346 377.665M323.347 390.034L323.336 390.028L283.177 367.276V367.145M323.347 390.034L283.177 367.145M360.946 379.166L360.948 379.167C360.946 379.165 360.945 379.165 360.946 379.166ZM360.946 379.166C360.947 379.166 360.947 379.166 360.947 379.166C360.948 379.166 360.95 379.167 360.952 379.167C360.954 379.167 360.956 379.167 360.958 379.167C360.96 379.167 360.963 379.167 360.965 379.167C360.966 379.167 360.967 379.166 360.968 379.166C360.969 379.166 360.969 379.166 360.969 379.166M360.969 379.166L360.969 379.166L360.967 379.167C360.968 379.167 360.969 379.166 360.969 379.166C360.97 379.166 360.97 379.166 360.969 379.166ZM360.969 379.166L363.846 377.386M363.846 377.386V377.665H364.346M363.846 377.386V377.297L364.346 376.991V377.665M363.846 377.386L364.083 377.239L364.346 377.665M283.177 367.145L323.128 389.76L323.376 389.9L323.623 389.758L351.666 373.664L351.674 373.66L351.68 373.656C351.679 373.656 351.679 373.656 351.68 373.656C351.68 373.656 351.68 373.656 351.681 373.656C351.683 373.655 351.687 373.655 351.691 373.655C351.694 373.655 351.696 373.655 351.697 373.655C351.699 373.655 351.701 373.655 351.702 373.656C351.702 373.656 351.703 373.656 351.703 373.656L283.177 367.145Z" stroke="#C9C9C9"/>
<path fill-rule="evenodd" clip-rule="evenodd" d="M428.062 722.65L428.731 723.036L428.73 723.419L428.682 739.892L427.684 739.227L427.728 724.001L387.627 747.303L387.492 793.674L427.593 770.372L427.661 747.17L428.659 747.669L428.591 770.949L387.488 794.833L387.283 794.952L386.489 794.494L386.49 794.256L386.629 746.726L427.732 722.842L428.062 722.65Z" fill="#C9C9C9"/>
<path fill-rule="evenodd" clip-rule="evenodd" d="M346.443 722.606L345.649 723.064L345.649 723.302L345.51 770.838L386.88 794.727L387.259 794.946L387.279 794.745L387.881 794.397L387.882 794.151L388.021 746.615L346.65 722.725L346.443 722.606ZM387.019 747.192L346.647 723.878L346.512 770.261L386.884 793.574L387.019 747.192Z" fill="#C9C9C9"/>
<path fill-rule="evenodd" clip-rule="evenodd" d="M391.015 701.254V702.409L427.461 723.456L387.35 746.763L346.978 723.45L384.738 701.509V700.352L345.98 722.874L345.648 723.067V723.837L345.981 724.029L387.352 747.919L428.46 724.032L428.678 723.905H428.645V722.984L428.458 722.876L391.015 701.254ZM429.451 723.456V723.45L429.457 723.453L429.451 723.456Z" fill="#C9C9C9"/>
<path d="M386.934 764.153L386.977 764.129L415.02 748.035L415.271 747.891L415.521 748.036L424.523 753.279L424.529 753.283L424.534 753.286M386.934 764.153L386.678 764.583C386.779 764.644 386.861 764.664 386.962 764.664C387.043 764.664 387.145 764.644 387.226 764.562L415.269 748.468L424.271 753.711C424.434 753.813 424.657 753.813 424.82 753.711L427.934 751.784M386.934 764.153L386.924 764.148L346.765 741.396V741.265M386.934 764.153L346.765 741.265M424.534 753.286L424.536 753.287C424.533 753.285 424.533 753.285 424.534 753.286ZM424.534 753.286C424.534 753.286 424.534 753.286 424.535 753.286C424.536 753.286 424.538 753.287 424.54 753.287C424.541 753.287 424.543 753.287 424.545 753.287C424.548 753.287 424.55 753.287 424.552 753.287C424.554 753.286 424.555 753.286 424.556 753.286C424.556 753.286 424.557 753.286 424.557 753.286M424.557 753.286L424.557 753.286L424.555 753.287C424.556 753.286 424.556 753.286 424.557 753.286C424.558 753.285 424.558 753.285 424.557 753.286ZM424.557 753.286L427.434 751.506M427.434 751.506V751.784H427.934M427.434 751.506V751.417L427.934 751.111V751.784M427.434 751.506L427.671 751.359L427.934 751.784M346.765 741.265L386.716 763.88L386.964 764.02L387.211 763.878L415.254 747.784L415.262 747.78L415.268 747.776C415.267 747.776 415.267 747.776 415.268 747.776C415.268 747.776 415.268 747.776 415.268 747.776C415.271 747.775 415.274 747.774 415.279 747.774C415.281 747.774 415.283 747.775 415.285 747.775C415.287 747.775 415.289 747.775 415.29 747.776C415.29 747.776 415.29 747.776 415.29 747.776L346.765 741.265Z" stroke="#C9C9C9"/>
<path fill-rule="evenodd" clip-rule="evenodd" d="M639.692 102.115L639.024 101.729L638.693 101.921L597.59 125.806L597.451 173.336L597.45 173.573L598.244 174.031L598.449 173.912L639.552 150.028L639.691 102.498L639.692 102.115ZM638.689 103.08L598.588 126.382L598.453 172.754L638.554 149.451L638.689 103.08Z" fill="#C9C9C9"/>
<path fill-rule="evenodd" clip-rule="evenodd" d="M557.403 101.685L556.609 102.143L556.609 102.381L556.47 149.917L597.84 173.806L598.219 174.025L598.239 173.824L598.841 173.476L598.842 173.23L598.981 125.694L557.61 101.804L557.403 101.685ZM597.979 126.27L557.607 102.957L557.472 149.34L597.844 172.653L597.979 126.27Z" fill="#C9C9C9"/>
<path fill-rule="evenodd" clip-rule="evenodd" d="M639.607 102.064L639.421 101.956L598.05 78.0662L556.943 101.953L556.611 102.146V102.916L556.944 103.109L598.315 126.999L639.422 103.112L639.641 102.985H639.607V102.064ZM640.414 102.529V102.536L640.419 102.532L640.414 102.529ZM638.424 102.535L598.052 79.2218L557.941 102.53L598.313 125.843L638.424 102.535Z" fill="#C9C9C9"/>
<path d="M598.25 112.643L580.716 102.531L598.109 92.4214L615.643 102.553L598.25 112.643Z" stroke="#C9C9C9"/>
<path d="M597.896 143.232L597.939 143.207L625.982 127.113L626.233 126.969L626.483 127.115L635.485 132.358L635.491 132.362L635.496 132.364M597.896 143.232L597.64 143.661C597.741 143.722 597.823 143.743 597.924 143.743C598.005 143.743 598.107 143.722 598.188 143.641L626.231 127.547L635.233 132.79C635.396 132.891 635.619 132.891 635.782 132.79L638.896 130.863M597.896 143.232L597.886 143.226L557.727 120.474V120.343M597.896 143.232L557.727 120.343M635.496 132.364L635.498 132.366C635.495 132.364 635.495 132.364 635.496 132.364ZM635.496 132.364C635.496 132.365 635.496 132.365 635.497 132.365C635.498 132.365 635.5 132.365 635.502 132.366C635.503 132.366 635.505 132.366 635.507 132.366C635.51 132.366 635.512 132.366 635.514 132.365C635.516 132.365 635.517 132.365 635.518 132.365C635.518 132.365 635.519 132.365 635.519 132.364M635.519 132.364L635.519 132.364L635.517 132.366C635.518 132.365 635.518 132.365 635.519 132.365C635.52 132.364 635.52 132.364 635.519 132.364ZM635.519 132.364L638.396 130.584M638.396 130.584V130.863H638.896M638.396 130.584V130.496L638.896 130.189V130.863M638.396 130.584L638.633 130.438L638.896 130.863M557.727 120.343L597.678 142.958L597.926 143.099L598.173 142.957L626.216 126.863L626.224 126.858L626.23 126.855C626.229 126.855 626.229 126.855 626.23 126.855C626.23 126.854 626.23 126.854 626.23 126.854C626.233 126.854 626.236 126.853 626.241 126.853C626.243 126.853 626.245 126.853 626.247 126.853C626.249 126.854 626.251 126.854 626.252 126.854C626.252 126.854 626.252 126.854 626.252 126.855L557.727 120.343Z" stroke="#C9C9C9"/>
<path fill-rule="evenodd" clip-rule="evenodd" d="M832.065 447.931L831.396 447.545L831.065 447.738L789.963 471.622L789.824 519.152L789.823 519.389L790.617 519.847L790.822 519.728L831.925 495.844L832.064 448.314L832.065 447.931ZM831.062 448.896L790.961 472.198L790.825 518.57L830.927 495.268L831.062 448.896Z" fill="#C9C9C9"/>
<path fill-rule="evenodd" clip-rule="evenodd" d="M749.776 447.502L748.982 447.96L748.981 448.198L748.843 495.733L790.213 519.623L790.59 519.841L790.61 519.64L791.214 519.292L791.215 519.047L791.354 471.511L749.983 447.621L749.776 447.502ZM790.352 472.087L749.98 448.774L749.844 495.157L790.216 518.47L790.352 472.087Z" fill="#C9C9C9"/>
<path fill-rule="evenodd" clip-rule="evenodd" d="M787.525 425.565L749.313 447.769L748.981 447.962V448.733L749.314 448.925L790.685 472.815L831.793 448.928L832.011 448.801H831.977V447.88L831.791 447.772L794.244 426.09V427.143L794.068 427.143L830.794 448.351L790.683 471.659L750.311 448.346L787.525 426.722V425.565ZM832.784 448.352V448.345L832.789 448.349L832.784 448.352Z" fill="#C9C9C9"/>
<path d="M790.268 489.048L790.311 489.023L818.354 472.929L818.604 472.785L818.854 472.931L827.856 478.173L827.863 478.177L827.868 478.18M790.268 489.048L790.011 489.477C790.113 489.538 790.194 489.558 790.296 489.558C790.377 489.558 790.478 489.538 790.56 489.457L818.602 473.363L827.605 478.605C827.767 478.707 827.991 478.707 828.153 478.605L831.267 476.679M790.268 489.048L790.258 489.042L750.099 466.29V466.159M790.268 489.048L750.099 466.159M827.868 478.18L827.87 478.181C827.867 478.18 827.866 478.18 827.868 478.18ZM827.868 478.18C827.868 478.18 827.868 478.18 827.868 478.18C827.869 478.181 827.871 478.181 827.873 478.181C827.875 478.181 827.877 478.182 827.879 478.182C827.881 478.182 827.884 478.181 827.886 478.181C827.887 478.181 827.889 478.181 827.89 478.18C827.89 478.18 827.89 478.18 827.89 478.18M827.89 478.18L827.89 478.18L827.888 478.181C827.889 478.181 827.89 478.18 827.89 478.18C827.891 478.18 827.891 478.18 827.89 478.18ZM827.89 478.18L830.767 476.4M830.767 476.4V476.679H831.267M830.767 476.4V476.311L831.267 476.005V476.679M830.767 476.4L831.004 476.253L831.267 476.679M750.099 466.159L790.049 488.774L790.297 488.914L790.544 488.773L818.587 472.679L818.595 472.674L818.601 472.67C818.6 472.671 818.6 472.67 818.601 472.67C818.601 472.67 818.602 472.67 818.602 472.67C818.604 472.669 818.608 472.669 818.613 472.669C818.615 472.669 818.617 472.669 818.618 472.669C818.62 472.669 818.622 472.67 818.623 472.67C818.624 472.67 818.624 472.67 818.624 472.67L750.099 466.159Z" stroke="#C9C9C9"/>
<path fill-rule="evenodd" clip-rule="evenodd" d="M884.535 848.921L885.203 849.307L885.202 849.69L885.113 880.1L884.115 879.626L884.2 850.272L844.099 873.574L843.964 919.946L884.065 896.644L884.092 887.251L885.091 887.827L885.063 897.22L843.96 921.104L843.755 921.223L842.961 920.765L842.962 920.528L843.101 872.998L884.204 849.114L884.535 848.921Z" fill="#C9C9C9"/>
<path fill-rule="evenodd" clip-rule="evenodd" d="M802.916 848.878L802.121 849.336L802.121 849.574L801.982 897.109L843.352 920.999L843.731 921.218L843.751 921.017L844.353 920.669L844.354 920.423L844.493 872.887L803.122 848.997L802.916 848.878ZM843.491 873.463L803.119 850.15L802.983 896.533L843.356 919.846L843.491 873.463Z" fill="#C9C9C9"/>
<path fill-rule="evenodd" clip-rule="evenodd" d="M885.115 849.256L884.929 849.148L843.559 825.259L802.451 849.146L802.119 849.338V850.109L802.452 850.301L843.823 874.191L884.931 850.304L885.149 850.177H885.115V849.256ZM885.922 849.722V849.728L885.927 849.725L885.922 849.722ZM883.932 849.727L843.56 826.414L803.449 849.722L843.821 873.035L883.932 849.727Z" fill="#C9C9C9"/>
<path d="M901.02 897.331L901.02 897.331C903.727 898.879 906.73 899.642 909.734 899.642C912.895 899.642 916.037 898.797 918.844 897.124C918.845 897.124 918.845 897.124 918.846 897.124L958.814 872.973L901.02 897.331ZM901.02 897.331L868.101 878.57M901.02 897.331L868.101 878.57M868.101 878.57C866.37 877.582 865.714 875.312 866.67 873.484C867.622 871.664 869.773 871.011 871.486 871.989L871.486 871.989M868.101 878.57L871.486 871.989M871.486 871.989L904.406 890.75L904.406 890.751M871.486 871.989L904.406 890.751M904.406 890.751C907.774 892.665 911.95 892.621 915.275 890.617L915.276 890.617M904.406 890.751L915.276 890.617M915.276 890.617L955.247 866.464L955.248 866.464M915.276 890.617L955.248 866.464M955.248 866.464C958.653 864.397 960.772 860.582 960.772 856.486V729.146C960.772 725.008 958.632 721.147 955.161 719.101L864.469 665.596L864.468 665.596M955.248 866.464L864.468 665.596M864.468 665.596C862.759 664.592 862.136 662.302 863.111 660.491C864.079 658.694 866.247 658.075 867.945 659.072C867.945 659.072 867.945 659.072 867.945 659.073L958.636 712.576L958.636 712.576M864.468 665.596L958.636 712.576M958.636 712.576C964.35 715.942 967.9 722.29 967.9 729.146M958.636 712.576L967.9 729.146M967.9 729.146V856.486M967.9 729.146V856.486M967.9 856.486C967.9 863.258 964.409 869.587 958.814 872.973L967.9 856.486Z" stroke="#C9C9C9"/>
<path d="M843.754 859.836L826.22 849.723L843.613 839.614L861.147 849.746L843.754 859.836Z" stroke="#C9C9C9"/>
<path d="M843.434 889.716L802.737 866.678V867.959L843.15 890.854C843.251 890.915 843.333 890.935 843.434 890.935C843.516 890.935 843.617 890.915 843.699 890.834" stroke="#C9C9C9"/>
<path fill-rule="evenodd" clip-rule="evenodd" d="M884.535 618.076L885.203 618.462L885.202 618.845L885.063 666.375L881.919 668.202L880.941 667.614L884.065 665.799L884.2 619.427L844.099 642.729L843.964 689.101L874.603 671.297L875.619 671.863L843.96 690.259L843.755 690.379L842.961 689.92L842.962 689.683L843.101 642.153L884.204 618.269L884.535 618.076Z" fill="#C9C9C9"/>
<path fill-rule="evenodd" clip-rule="evenodd" d="M802.121 618.491L802.916 618.033L803.122 618.152L844.493 642.042L844.476 647.665L843.481 645.941L843.491 642.618L803.119 619.305L802.983 665.688L843.356 689.001L843.45 656.561L844.452 655.983L844.354 689.578L844.353 689.824L843.751 690.171L843.731 690.373L843.352 690.154L801.982 666.264L802.121 618.728L802.121 618.491Z" fill="#C9C9C9"/>
<path fill-rule="evenodd" clip-rule="evenodd" d="M885.115 618.411L884.928 618.303L843.558 594.413L802.45 618.3L802.118 618.493V619.264L802.451 619.456L843.822 643.346L884.93 619.459L885.148 619.332H885.115V618.411ZM885.921 618.876V618.883L885.926 618.88L885.921 618.876ZM883.931 618.882L843.559 595.569L803.448 618.877L843.82 642.19L883.931 618.882Z" fill="#C9C9C9"/>
<path d="M843.757 628.991L826.223 618.878L843.616 608.769L861.15 618.901L843.757 628.991Z" stroke="#C9C9C9"/>
<path d="M843.407 659.579L843.45 659.555L871.492 643.461L871.743 643.317L871.993 643.462L880.995 648.705L881.002 648.709L881.006 648.712M843.407 659.579L843.15 660.009C843.251 660.07 843.333 660.09 843.434 660.09C843.516 660.09 843.617 660.07 843.699 659.988L871.741 643.894L880.743 649.137C880.906 649.239 881.129 649.239 881.292 649.137L884.406 647.21M843.407 659.579L843.396 659.574L803.237 636.822V636.691M843.407 659.579L803.237 636.691M881.006 648.712L881.008 648.713C881.006 648.711 881.005 648.711 881.006 648.712ZM881.006 648.712C881.006 648.712 881.007 648.712 881.007 648.712C881.008 648.712 881.01 648.713 881.012 648.713C881.014 648.713 881.015 648.713 881.018 648.713C881.02 648.713 881.023 648.713 881.025 648.713C881.026 648.712 881.027 648.712 881.028 648.712C881.029 648.712 881.029 648.712 881.029 648.712M881.029 648.712L881.029 648.712L881.027 648.713C881.028 648.712 881.028 648.712 881.029 648.712C881.03 648.711 881.03 648.711 881.029 648.712ZM881.029 648.712L883.906 646.932M883.906 646.932V647.21H884.406M883.906 646.932V646.843L884.406 646.537V647.21M883.906 646.932L884.143 646.785L884.406 647.21M803.237 636.691L843.188 659.306L843.436 659.446L843.683 659.304L871.726 643.21L871.734 643.206L871.74 643.202C871.739 643.202 871.739 643.202 871.74 643.202C871.74 643.202 871.74 643.202 871.741 643.202C871.743 643.201 871.747 643.2 871.751 643.2C871.754 643.2 871.756 643.201 871.757 643.201C871.759 643.201 871.761 643.201 871.762 643.202C871.762 643.202 871.762 643.202 871.763 643.202L803.237 636.691Z" stroke="#C9C9C9"/>
<path d="M233.852 677.418L238.34 680.011L238.324 685.158L233.835 682.564L233.852 677.418Z" stroke="#C9C9C9"/>
<path d="M241.612 681.908L246.101 684.502L246.084 689.648L241.596 687.055L241.612 681.908Z" stroke="#C9C9C9"/>
<path d="M265.226 695.541L269.714 698.117L269.698 703.284L265.209 700.69L265.226 695.541Z" stroke="#C9C9C9"/>
<path d="M272.682 699.847L273.818 700.496L273.801 705.646L272.665 704.997L272.682 699.847Z" stroke="#C9C9C9"/>
<path d="M285.707 707.366L286.843 708.014L286.826 713.164L285.691 712.515L285.707 707.366Z" stroke="#C9C9C9"/>
<path d="M220.784 862.782L225.456 865.478V870.866L220.767 868.153L220.784 862.782Z" stroke="#C9C9C9"/>
<path d="M228.831 867.434L233.522 870.132L233.505 875.521L228.814 872.806L228.831 867.434Z" stroke="#C9C9C9"/>
<path d="M279.999 896.98L284.691 899.678L284.674 905.067L279.982 902.353L279.999 896.98Z" stroke="#C9C9C9"/>
<path d="M240.433 874.121L275.971 894.638L275.955 900.029L240.416 879.512L240.433 874.121Z" stroke="#C9C9C9"/>
<path d="M596.003 925.902L600.676 928.598V933.985L595.987 931.273L596.003 925.902Z" stroke="#C9C9C9"/>
<path d="M604.053 930.553L608.745 933.251L608.728 938.64L604.037 935.926L604.053 930.553Z" stroke="#C9C9C9"/>
<path d="M655.218 960.1L659.909 962.798L659.892 968.187L655.201 965.472L655.218 960.1Z" stroke="#C9C9C9"/>
<path d="M615.653 937.241L651.191 957.757L651.174 963.148L615.636 942.631L615.653 937.241Z" stroke="#C9C9C9"/>
<path d="M318.703 520.255L318.705 520.255L382.085 555.593L382.086 555.593C387.84 558.797 391.42 564.888 391.42 571.494V719.389C391.42 721.348 389.815 722.953 387.856 722.953C385.897 722.953 384.292 721.348 384.292 719.389V571.494C384.292 567.473 382.121 563.77 378.61 561.812L315.231 526.475C315.231 526.475 315.231 526.475 315.23 526.474C313.517 525.51 312.897 523.335 313.857 521.629C314.821 519.915 316.996 519.294 318.703 520.255Z" stroke="#C9C9C9"/>
<path d="M781.083 286.385L781.073 286.379L781.062 286.374L635.778 214.202C634.073 213.235 633.457 211.065 634.415 209.362C635.378 207.649 637.554 207.028 639.261 207.988L639.272 207.994L639.284 208L784.569 280.172C790.318 283.377 793.894 289.465 793.894 296.068V443.962C793.894 445.921 792.289 447.526 790.33 447.526C788.37 447.526 786.765 445.921 786.765 443.962V296.068C786.765 292.046 784.595 288.343 781.083 286.385Z" stroke="#C9C9C9"/>
<path fill-rule="evenodd" clip-rule="evenodd" d="M793.946 439.811L806.716 447.19L790.32 456.702L773.785 447.165L787.084 439.436V438.279L772.786 446.589L771.789 447.168L772.788 447.744L790.322 457.857L807.715 447.767L808.712 447.189L807.714 446.612L793.823 438.585L793.946 439.811Z" fill="#C9C9C9"/>
<path d="M565.504 38.5929L565.503 38.5923L500.275 0.938495C500.275 0.938407 500.274 0.938319 500.274 0.93823C499.339 0.401461 498.608 0.412943 498.144 0.679529C497.68 0.945504 497.305 1.56664 497.305 2.63858V2.63987L497.224 34.2374C497.224 34.2376 497.224 34.2378 497.224 34.238C497.224 35.3086 497.601 36.5283 498.236 37.6301C498.872 38.7321 499.739 39.6698 500.671 40.2048L500.672 40.2054L565.881 77.8592L565.504 38.5929ZM565.504 38.5929C566.436 39.1279 567.309 40.0706 567.947 41.1777C568.585 42.285 568.961 43.5084 568.952 44.5763L568.952 44.5794M565.504 38.5929L568.952 44.5794M568.952 44.5794L568.871 76.1782V76.1794M568.952 44.5794L568.871 76.1794M568.871 76.1794C568.871 77.2488 568.493 77.8639 568.026 78.1261M568.871 76.1794L568.026 78.1261M556.015 49.1596L556.014 49.1591L523.603 30.4442C523.603 30.4441 523.602 30.4439 523.602 30.4437L523.602 30.4437L523.852 30.0107L556.015 49.1596ZM556.015 49.1596C556.586 49.4876 557.219 49.5775 557.743 49.2802C558.268 48.9816 558.511 48.3902 558.511 47.7304C558.511 47.0738 558.284 46.3739 557.94 45.7726M556.015 49.1596L557.94 45.7726M528.643 43.8762L528.642 43.8759L510.988 33.6978C510.987 33.6973 510.986 33.6969 510.985 33.6964C510.403 33.3681 509.908 32.8226 509.563 32.2242C509.218 31.6268 508.994 30.9299 509.006 30.2702C509.007 29.6185 509.24 29.0229 509.763 28.7197C510.288 28.4147 510.926 28.5095 511.504 28.8467C511.504 28.8469 511.505 28.847 511.505 28.8472L529.161 39.0263L528.643 43.8762ZM528.643 43.8762C529.209 44.202 529.841 44.2994 530.365 44.01M528.643 43.8762L530.365 44.01M568.026 78.1261C567.555 78.3905 566.817 78.3967 565.882 77.8598L568.026 78.1261ZM557.94 45.7726C557.596 45.1718 557.108 44.6197 556.534 44.2899L557.94 45.7726ZM530.365 44.01C530.896 43.7171 531.139 43.1272 531.139 42.4673M530.365 44.01L531.139 42.4673M531.139 42.4673C531.139 41.8107 530.912 41.1108 530.568 40.5095M531.139 42.4673L530.568 40.5095M530.568 40.5095C530.224 39.9086 529.735 39.3564 529.162 39.0267L530.568 40.5095ZM524.122 25.5745L524.121 25.5739L556.533 44.2893L524.122 25.5745ZM518.238 27.3349L518.238 27.3351C518.809 27.6631 519.443 27.753 519.966 27.4557C520.492 27.1571 520.735 26.5656 520.735 25.9059C520.735 25.2493 520.507 24.5494 520.163 23.9481C519.82 23.347 519.331 22.7946 518.757 22.4648L511.525 18.3007C511.525 18.3005 511.525 18.3004 511.524 18.3002C510.946 17.963 510.308 17.8682 509.783 18.1732C509.259 18.4772 509.026 19.0749 509.026 19.7283C509.026 20.3943 509.253 21.0943 509.598 21.6946C509.943 22.2946 510.432 22.8406 511.004 23.1694L518.238 27.3349ZM537.115 48.793L537.116 48.7939C537.681 49.118 538.311 49.2197 538.834 48.9219C539.36 48.6225 539.593 48.0257 539.593 47.3646C539.593 46.7074 539.365 46.0122 539.021 45.4136C538.676 44.8145 538.189 44.2659 537.621 43.9276L537.621 43.9275L537.616 43.9245L534.283 41.994L534.282 41.9931C533.713 41.6664 533.082 41.5734 532.561 41.8742C532.04 42.1752 531.805 42.768 531.805 43.4224C531.805 44.0883 532.032 44.7883 532.377 45.3886C532.722 45.9882 533.211 46.5339 533.783 46.8627C533.783 46.863 533.783 46.8632 533.784 46.8634L537.115 48.793Z" stroke="#C9C9C9"/>
<path d="M1012.8 677.139L1012.8 677.139L997.457 668.279L1012.8 677.139ZM1012.8 677.139C1013.37 677.467 1014 677.557 1014.53 677.26M1012.8 677.139L1014.53 677.26M997.976 663.429L997.977 663.43L1013.32 672.289L997.976 663.429ZM997.976 663.429C997.409 663.104 996.777 663.006 996.253 663.296M997.976 663.429L996.253 663.296M988.415 672.364L988.414 672.364L977.344 665.985C977.343 665.985 977.342 665.985 977.341 665.984C976.759 665.656 976.264 665.11 975.918 664.508C975.573 663.908 975.35 663.206 975.362 662.538C975.363 661.886 975.596 661.29 976.119 660.987C976.644 660.682 977.281 660.777 977.86 661.114C977.86 661.114 977.861 661.114 977.861 661.115L988.933 667.494L988.415 672.364ZM988.415 672.364C988.986 672.692 989.619 672.782 990.143 672.485M988.415 672.364L990.143 672.485M994.467 663.689H994.467C994.455 664.343 994.213 664.931 993.693 665.229C993.17 665.528 992.54 665.437 991.971 665.109L991.97 665.109L984.879 661.025L994.467 663.689ZM994.467 663.689V663.68M994.467 663.689V663.68M994.467 663.68C994.467 663.023 994.24 662.328 993.895 661.731C993.55 661.134 993.061 660.588 992.489 660.259L985.398 656.175L985.397 656.175M994.467 663.68L985.397 656.175M985.397 656.175C984.83 655.849 984.199 655.752 983.675 656.041M985.397 656.175L983.675 656.041M970.675 662.143L970.673 662.142L966.042 659.46L970.675 662.143ZM970.675 662.143C971.243 662.469 971.874 662.562 972.395 662.261C972.917 661.96 973.151 661.368 973.151 660.713C973.151 660.056 972.923 659.361 972.579 658.762C972.235 658.163 971.747 657.615 971.18 657.276L971.18 657.276M970.675 662.143L971.18 657.276M971.18 657.276L971.174 657.273M971.18 657.276L971.174 657.273M971.174 657.273L966.541 654.591L966.54 654.59M971.174 657.273L966.54 654.59M966.54 654.59C965.971 654.263 965.34 654.17 964.819 654.471M966.54 654.59L964.819 654.471M1014.53 677.26C1015.05 676.961 1015.3 676.37 1015.3 675.71M1014.53 677.26L1015.3 675.71M1015.3 675.71C1015.3 675.053 1015.07 674.358 1014.72 673.761M1015.3 675.71L1014.72 673.761M1014.72 673.761C1014.38 673.164 1013.89 672.619 1013.32 672.29L1014.72 673.761ZM996.253 663.296C995.723 663.589 995.479 664.179 995.479 664.838M996.253 663.296L995.479 664.838M995.479 664.838C995.479 665.495 995.707 666.195 996.051 666.796M995.479 664.838L996.051 666.796M996.051 666.796C996.394 667.397 996.883 667.949 997.456 668.279L996.051 666.796ZM990.143 672.485C990.668 672.186 990.911 671.594 990.911 670.935M990.143 672.485L990.911 670.935M990.911 670.935C990.911 670.278 990.684 669.578 990.34 668.977M990.911 670.935L990.34 668.977M990.34 668.977C989.996 668.376 989.507 667.824 988.934 667.494L990.34 668.977ZM983.675 656.041C983.144 656.334 982.901 656.924 982.901 657.584M983.675 656.041L982.901 657.584M982.901 657.584C982.901 658.24 983.128 658.94 983.472 659.542M982.901 657.584L983.472 659.542M983.472 659.542C983.816 660.143 984.305 660.695 984.878 661.025L983.472 659.542ZM964.819 654.471C964.297 654.772 964.063 655.365 964.063 656.019M964.819 654.471L964.063 656.019M964.063 656.019C964.063 656.685 964.29 657.385 964.635 657.985M964.063 656.019L964.635 657.985M964.635 657.985C964.98 658.585 965.468 659.131 966.04 659.459L964.635 657.985ZM1017.74 661.858L1017.74 661.858C1018.67 662.393 1019.54 663.335 1020.17 664.44C1020.81 665.545 1021.18 666.764 1021.18 667.824C1021.18 667.825 1021.18 667.825 1021.18 667.826L1021.08 700.175V700.176C1021.08 701.249 1020.71 701.869 1020.25 702.132C1019.78 702.396 1019.05 702.405 1018.12 701.858L1018.11 701.857L951.544 663.43L951.543 663.429C950.611 662.894 949.744 661.957 949.108 660.855C948.473 659.753 948.096 658.533 948.095 657.463C948.095 657.462 948.095 657.462 948.095 657.462L948.197 625.113H948.197V625.111C948.197 624.051 948.571 623.429 949.036 623.162C949.5 622.896 950.23 622.884 951.164 623.43L951.164 623.43L951.166 623.431L1017.74 661.858ZM977.359 656.676L977.36 656.676C977.929 657.003 978.56 657.096 979.081 656.795C979.602 656.494 979.836 655.901 979.836 655.247C979.836 654.59 979.609 653.894 979.264 653.298C978.919 652.701 978.43 652.155 977.858 651.826C977.858 651.826 977.858 651.826 977.858 651.826L955.283 638.801L955.282 638.801C954.715 638.475 954.084 638.378 953.559 638.667C953.029 638.96 952.785 639.55 952.785 640.21C952.785 640.87 953.02 641.566 953.37 642.162C953.719 642.758 954.213 643.302 954.783 643.63C954.783 643.63 954.784 643.63 954.784 643.63L977.359 656.676ZM961.588 651.729L961.588 651.729L958.745 655.253C958.745 655.253 958.746 655.254 958.746 655.254L961.06 656.593C961.06 656.594 961.061 656.594 961.061 656.594C961.64 656.931 962.277 657.026 962.803 656.721C963.326 656.417 963.56 655.819 963.56 655.166C963.56 654.508 963.332 653.813 962.988 653.215C962.643 652.616 962.156 652.067 961.588 651.729Z" stroke="#C9C9C9"/>
<path d="M991.788 885.91L991.805 891.283L987.113 893.997L987.097 888.608L991.788 885.91Z" stroke="#C9C9C9"/>
<path d="M983.742 890.564L983.759 895.936L979.067 898.65L979.05 893.261L983.742 890.564Z" stroke="#C9C9C9"/>
<path d="M932.554 920.11L932.571 925.482L927.879 928.197L927.862 922.808L932.554 920.11Z" stroke="#C9C9C9"/>
<path d="M972.138 897.251L972.155 902.642L936.617 923.158L936.6 917.768L972.138 897.251Z" stroke="#C9C9C9"/>
<path d="M55.9869 757.844C55.9869 756.271 55.1691 754.824 53.785 754.006L27.3608 738.655M55.9869 757.844L23.0196 776.844M55.9869 757.844L56.0499 788.357M55.9869 757.844L53.848 792.195M27.3608 738.655C26.0396 737.9 24.3408 737.837 22.9567 738.655C21.5725 739.473 20.7548 740.92 20.7548 742.493M27.3608 738.655L27.1096 739.087L27.1112 739.088C25.9342 738.416 24.4285 738.366 23.211 739.085C21.9789 739.813 21.255 741.097 21.2548 742.492M27.3608 738.655L27.1127 739.089L53.5307 754.436L53.785 754.006L53.5339 754.438L53.5322 754.437C54.7635 755.166 55.4869 756.449 55.4869 757.844V757.845L55.5499 788.357H56.0499M20.7548 742.493L20.8178 773.006C20.8178 774.579 21.6355 776.026 23.0196 776.844M20.7548 742.493L21.2548 742.492L21.2548 742.492M20.7548 742.493H21.2548L21.2548 742.492M23.0196 776.844L23.274 776.414C23.2734 776.413 23.2728 776.413 23.2722 776.413L23.2708 776.412L23.0196 776.844ZM21.2548 742.492L49.6891 791.759M56.0499 788.357L55.5499 788.358V788.358C55.5495 789.751 54.8285 791.032 53.601 791.76M56.0499 788.357C56.0499 789.93 55.2321 791.377 53.848 792.195M53.601 791.76C52.9843 792.095 52.3141 792.261 51.6458 792.261C50.9768 792.261 50.3063 792.095 49.6891 791.759M53.601 791.76C53.6035 791.759 53.606 791.758 53.6086 791.756L53.848 792.195M53.601 791.76C53.5986 791.762 53.5961 791.763 53.5936 791.765L53.848 792.195M49.6891 791.759L49.6951 791.763L49.4439 792.195L49.6833 791.756C49.6852 791.757 49.6871 791.758 49.6891 791.759ZM29.1256 770.428L29.1265 770.715L29.3745 770.859L46.928 781.051L47.6818 781.489L47.6791 780.617L47.6161 760.296L47.6152 760.009L47.3671 759.865L29.8141 749.673L29.0603 749.235L29.063 750.107L29.1256 770.428Z" stroke="#C9C9C9"/>
<path d="M49.6889 723.674L49.6889 723.674L49.6929 723.671C50.9104 722.952 52.4161 723.002 53.5931 723.674C53.5936 723.674 53.5941 723.675 53.5946 723.675L80.0126 739.022C80.0131 739.023 80.0137 739.023 80.0143 739.023C81.2455 739.752 81.9688 741.035 81.9688 742.43C81.9688 743.825 81.2456 745.107 80.0147 745.836C80.014 745.836 80.0133 745.837 80.0126 745.837L53.4665 761.186L53.4664 761.186L53.4595 761.19C52.9223 761.512 52.1974 761.685 51.5149 761.685C50.8458 761.685 50.175 761.518 49.5578 761.183L23.1431 745.837C23.1426 745.837 23.1421 745.836 23.1416 745.836C21.9102 745.108 21.1865 743.825 21.1865 742.43C21.1865 741.035 21.91 739.752 23.1411 739.024C23.1418 739.023 23.1425 739.023 23.1431 739.022L49.6889 723.674ZM33.7112 741.997L32.9649 742.428L33.7099 742.862L51.3263 753.117L51.577 753.263L51.8281 753.118L69.5701 742.863L70.3163 742.431L69.5714 741.998L51.955 731.742L51.7043 731.597L51.4532 731.742L33.7112 741.997Z" stroke="#C9C9C9"/>
<path d="M47.7356 788.357L47.7356 788.356L47.6726 757.844C47.6726 757.844 47.6726 757.843 47.6726 757.843C47.6728 756.449 48.396 755.166 49.6268 754.438C49.6275 754.437 49.6282 754.437 49.6289 754.436L76.175 739.088L76.175 739.088L76.1791 739.085C77.3938 738.367 78.8408 738.413 80.0894 739.094C81.2984 739.753 82.0307 741.086 82.0307 742.493V742.494L82.0936 773.006C82.0936 773.007 82.0936 773.007 82.0936 773.007C82.0933 774.402 81.3699 775.684 80.1391 776.412C80.1384 776.413 80.1377 776.413 80.137 776.414L53.5969 791.759C52.9795 792.095 52.3085 792.261 51.6393 792.261C50.9683 792.261 50.2957 792.094 49.6769 791.756C48.4679 791.097 47.7356 789.764 47.7356 788.357ZM55.7303 759.927L55.4796 760.072L55.4805 760.362L55.5434 780.746L55.5461 781.61L56.2937 781.178L74.0356 770.922L74.2863 770.778L74.2854 770.488L74.2225 750.104L74.2198 749.24L73.4722 749.672L55.7303 759.927Z" stroke="#C9C9C9"/>
<g opacity="0.2">
<path opacity="0.4" d="M749.379 662.348L784.98 641.79L784.996 645.84L749.379 666.396V662.348Z" stroke="#C9C9C9"/>
<path opacity="0.4" d="M738.04 608.047H738.04L738.04 608.038C738.032 607.602 738.184 607.081 738.464 606.594C738.743 606.109 739.123 605.703 739.52 605.471C739.92 605.238 740.157 605.279 740.263 605.34C740.37 605.401 740.526 605.585 740.536 606.04C740.534 606.49 740.376 607.017 740.094 607.505C739.813 607.993 739.433 608.399 739.037 608.63C738.654 608.85 738.416 608.81 738.306 608.747C738.196 608.684 738.04 608.498 738.04 608.047Z" stroke="#C9C9C9"/>
<path opacity="0.4" d="M745.711 601.899L745.711 601.899L745.715 601.896C746.099 601.676 746.339 601.715 746.451 601.778C746.56 601.84 746.714 602.021 746.714 602.459C746.714 602.91 746.555 603.439 746.272 603.928C745.99 604.417 745.61 604.823 745.214 605.055C744.814 605.288 744.577 605.246 744.471 605.186C744.364 605.126 744.208 604.943 744.198 604.491C744.209 604.037 744.373 603.503 744.657 603.014C744.942 602.521 745.321 602.118 745.711 601.899Z" stroke="#C9C9C9"/>
<path opacity="0.4" d="M752.182 598.156C752.582 597.923 752.819 597.964 752.925 598.024C753.032 598.085 753.188 598.269 753.198 598.724C753.197 599.175 753.038 599.702 752.757 600.19C752.475 600.679 752.094 601.085 751.698 601.316C751.298 601.549 751.061 601.508 750.955 601.447C750.848 601.387 750.692 601.202 750.682 600.747C750.683 600.297 750.842 599.77 751.123 599.282C751.405 598.793 751.786 598.387 752.182 598.156Z" stroke="#C9C9C9"/>
<path opacity="0.4" d="M758.375 594.581L758.375 594.581L758.378 594.579C758.778 594.346 759.015 594.387 759.121 594.447C759.228 594.508 759.385 594.692 759.394 595.148C759.393 595.598 759.234 596.125 758.953 596.613C758.671 597.101 758.291 597.507 757.896 597.738C757.512 597.958 757.274 597.918 757.164 597.854C757.054 597.791 756.899 597.606 756.899 597.155C756.899 596.714 757.057 596.184 757.338 595.694C757.619 595.202 757.994 594.8 758.375 594.581Z" stroke="#C9C9C9"/>
<path opacity="0.4" d="M783.148 625.651L783.399 625.506L783.398 625.216L783.235 571.407L783.233 570.544L782.485 570.975L731.826 600.237L731.575 600.382L731.576 600.672L731.738 654.481L731.741 655.344L732.488 654.912L783.148 625.651ZM730.484 599.759L784.351 568.656L784.511 626.128L730.643 657.232L730.484 599.759Z" stroke="#C9C9C9"/>
<path opacity="0.4" d="M828.586 599.417L828.837 599.272L828.836 598.982L828.674 545.173L828.671 544.31L827.924 544.741L808.7 555.836L808.449 555.981L808.45 556.271L808.613 610.08L808.615 610.943L809.363 610.512L828.586 599.417ZM807.358 555.379L829.769 542.442L829.928 599.915L807.517 612.852L807.358 555.379Z" stroke="#C9C9C9"/>
<path opacity="0.4" d="M731.783 688.48L739.298 684.139L739.316 692.76L731.801 697.101L731.783 688.48Z" stroke="#C9C9C9"/>
<path opacity="0.4" d="M743.163 694.617L750.679 690.275L750.715 698.918L743.199 703.259L743.163 694.617Z" stroke="#C9C9C9"/>
<path opacity="0.4" d="M743.142 681.917L750.639 677.594L750.675 686.217L743.16 690.558L743.142 681.917Z" stroke="#C9C9C9"/>
<path opacity="0.4" d="M731.804 701.181L739.339 696.839L739.357 705.481L731.84 709.823L731.804 701.181Z" stroke="#C9C9C9"/>
</g>
<g opacity="0.2">
<path opacity="0.4" d="M749.379 882.285L784.98 861.727L784.996 865.777L749.379 886.332V882.285Z" stroke="#C9C9C9"/>
<path opacity="0.4" d="M738.04 827.983H738.04L738.04 827.974C738.032 827.538 738.184 827.017 738.464 826.531C738.743 826.045 739.123 825.639 739.52 825.408C739.92 825.175 740.157 825.216 740.263 825.276C740.37 825.337 740.526 825.521 740.536 825.976C740.534 826.427 740.376 826.954 740.094 827.442C739.813 827.93 739.433 828.336 739.037 828.567C738.654 828.787 738.416 828.747 738.306 828.683C738.196 828.62 738.04 828.435 738.04 827.983Z" stroke="#C9C9C9"/>
<path opacity="0.4" d="M745.711 821.835L745.711 821.835L745.715 821.833C746.099 821.613 746.339 821.652 746.451 821.715C746.56 821.777 746.714 821.958 746.714 822.395C746.714 822.847 746.555 823.376 746.272 823.865C745.99 824.354 745.61 824.76 745.214 824.991C744.814 825.225 744.577 825.183 744.471 825.123C744.364 825.062 744.208 824.879 744.198 824.427C744.209 823.974 744.373 823.44 744.657 822.951C744.942 822.457 745.321 822.055 745.711 821.835Z" stroke="#C9C9C9"/>
<path opacity="0.4" d="M752.182 818.093C752.582 817.859 752.819 817.901 752.925 817.961C753.032 818.022 753.188 818.206 753.198 818.661C753.197 819.111 753.038 819.639 752.757 820.126C752.475 820.615 752.094 821.021 751.698 821.252C751.298 821.486 751.061 821.444 750.955 821.384C750.848 821.323 750.692 821.139 750.682 820.684C750.683 820.233 750.842 819.706 751.123 819.219C751.405 818.73 751.786 818.324 752.182 818.093Z" stroke="#C9C9C9"/>
<path opacity="0.4" d="M758.375 814.518L758.375 814.518L758.378 814.516C758.778 814.283 759.015 814.324 759.121 814.384C759.228 814.445 759.385 814.629 759.394 815.084C759.393 815.535 759.234 816.062 758.953 816.55C758.671 817.038 758.291 817.444 757.896 817.675C757.512 817.895 757.274 817.855 757.164 817.791C757.054 817.728 756.899 817.543 756.899 817.092C756.899 816.651 757.057 816.121 757.338 815.63C757.619 815.139 757.994 814.737 758.375 814.518Z" stroke="#C9C9C9"/>
<path opacity="0.4" d="M783.148 845.587L783.399 845.443L783.398 845.153L783.235 791.344L783.233 790.48L782.485 790.912L731.826 820.174L731.575 820.319L731.576 820.609L731.738 874.418L731.741 875.281L732.488 874.849L783.148 845.587ZM730.484 819.696L784.351 788.593L784.511 846.065L730.643 877.169L730.484 819.696Z" stroke="#C9C9C9"/>
<path opacity="0.4" d="M828.586 819.353L828.837 819.209L828.836 818.919L828.674 765.11L828.671 764.247L827.924 764.678L808.7 775.773L808.449 775.918L808.45 776.208L808.613 830.017L808.615 830.88L809.363 830.449L828.586 819.353ZM807.358 775.316L829.769 762.379L829.928 819.851L807.517 832.788L807.358 775.316Z" stroke="#C9C9C9"/>
<path opacity="0.4" d="M731.783 908.417L739.298 904.076L739.316 912.697L731.801 917.038L731.783 908.417Z" stroke="#C9C9C9"/>
<path opacity="0.4" d="M743.163 914.553L750.679 910.212L750.715 918.854L743.199 923.196L743.163 914.553Z" stroke="#C9C9C9"/>
<path opacity="0.4" d="M743.142 901.854L750.639 897.531L750.675 906.154L743.16 910.494L743.142 901.854Z" stroke="#C9C9C9"/>
<path opacity="0.4" d="M731.804 921.117L739.339 916.775L739.357 925.418L731.84 929.759L731.804 921.117Z" stroke="#C9C9C9"/>
</g>
<g opacity="0.2">
<path opacity="0.4" d="M558.015 317.799L593.616 297.241L593.632 301.291L558.015 321.847V317.799Z" stroke="#C9C9C9"/>
<path opacity="0.4" d="M546.673 263.498H546.673L546.673 263.489C546.665 263.053 546.817 262.532 547.097 262.045C547.376 261.56 547.756 261.154 548.153 260.922C548.552 260.689 548.79 260.731 548.896 260.791C549.003 260.852 549.159 261.036 549.168 261.491C549.167 261.941 549.009 262.469 548.727 262.956C548.446 263.445 548.066 263.85 547.67 264.081C547.287 264.301 547.049 264.261 546.938 264.198C546.829 264.135 546.673 263.949 546.673 263.498Z" stroke="#C9C9C9"/>
<path opacity="0.4" d="M554.345 257.35L554.345 257.35L554.349 257.347C554.733 257.127 554.973 257.166 555.085 257.229C555.194 257.291 555.348 257.472 555.348 257.91C555.348 258.361 555.189 258.89 554.907 259.379C554.624 259.868 554.244 260.274 553.848 260.505C553.448 260.739 553.211 260.697 553.105 260.637C552.998 260.577 552.842 260.393 552.832 259.942C552.843 259.488 553.007 258.954 553.291 258.465C553.576 257.972 553.955 257.569 554.345 257.35Z" stroke="#C9C9C9"/>
<path opacity="0.4" d="M560.812 253.607C561.211 253.373 561.449 253.415 561.555 253.475C561.662 253.536 561.818 253.72 561.827 254.175C561.826 254.626 561.668 255.153 561.386 255.64C561.104 256.129 560.724 256.535 560.328 256.767C559.928 257 559.691 256.958 559.585 256.898C559.478 256.837 559.321 256.653 559.312 256.198C559.313 255.748 559.472 255.22 559.753 254.733C560.035 254.244 560.415 253.838 560.812 253.607Z" stroke="#C9C9C9"/>
<path opacity="0.4" d="M567.006 250.032L567.006 250.032L567.009 250.03C567.409 249.797 567.646 249.838 567.752 249.899C567.859 249.959 568.015 250.144 568.025 250.599C568.024 251.049 567.865 251.576 567.583 252.064C567.302 252.552 566.922 252.958 566.527 253.189C566.143 253.409 565.905 253.369 565.795 253.306C565.685 253.243 565.529 253.057 565.529 252.606C565.529 252.165 565.688 251.636 565.969 251.145C566.25 250.654 566.625 250.251 567.006 250.032Z" stroke="#C9C9C9"/>
<path opacity="0.4" d="M591.779 281.102L592.03 280.957L592.029 280.667L591.866 226.858L591.864 225.995L591.116 226.426L540.457 255.688L540.206 255.833L540.207 256.123L540.369 309.932L540.372 310.795L541.119 310.364L591.779 281.102ZM539.114 255.211L592.982 224.107L593.141 281.58L539.274 312.683L539.114 255.211Z" stroke="#C9C9C9"/>
<path opacity="0.4" d="M637.36 309.083L637.611 308.939L637.61 308.649L637.528 282.557L637.526 281.694L636.778 282.125L617.555 293.221L617.304 293.365L617.305 293.655L617.386 319.747L617.389 320.61L618.136 320.179L637.36 309.083ZM616.213 292.743L638.624 279.806L638.702 309.581L616.291 322.518L616.213 292.743Z" stroke="#C9C9C9"/>
<path opacity="0.4" d="M637.217 254.868L637.468 254.723L637.467 254.433L637.304 200.624L637.302 199.761L636.554 200.192L617.331 211.287L617.08 211.432L617.081 211.722L617.243 265.531L617.246 266.394L617.993 265.963L637.217 254.868ZM615.989 210.83L638.4 197.893L638.559 255.366L616.148 268.303L615.989 210.83Z" stroke="#C9C9C9"/>
<path opacity="0.4" d="M540.413 343.931L547.929 339.59L547.947 348.211L540.431 352.552L540.413 343.931Z" stroke="#C9C9C9"/>
<path opacity="0.4" d="M551.796 350.068L559.312 345.726L559.348 354.369L551.831 358.71L551.796 350.068Z" stroke="#C9C9C9"/>
<path opacity="0.4" d="M551.773 337.368L559.27 333.045L559.306 341.668L551.791 346.009L551.773 337.368Z" stroke="#C9C9C9"/>
<path opacity="0.4" d="M540.435 356.632L547.97 352.29L547.988 360.932L540.471 365.274L540.435 356.632Z" stroke="#C9C9C9"/>
</g>
<g opacity="0.2">
<path opacity="0.4" d="M282.007 566.383L317.608 545.825L317.623 549.875L282.007 570.431V566.383Z" stroke="#C9C9C9"/>
<path opacity="0.4" d="M270.668 512.082H270.668L270.668 512.073C270.66 511.636 270.812 511.116 271.092 510.629C271.371 510.143 271.751 509.737 272.147 509.506C272.547 509.273 272.785 509.314 272.89 509.374C272.998 509.435 273.154 509.619 273.163 510.075C273.162 510.525 273.003 511.052 272.722 511.54C272.44 512.028 272.061 512.434 271.665 512.665C271.281 512.885 271.044 512.845 270.933 512.781C270.824 512.718 270.668 512.533 270.668 512.082Z" stroke="#C9C9C9"/>
<path opacity="0.4" d="M278.339 505.934L278.339 505.934L278.343 505.932C278.727 505.711 278.967 505.75 279.079 505.814C279.188 505.876 279.341 506.056 279.341 506.494C279.341 506.945 279.182 507.474 278.9 507.964C278.618 508.453 278.238 508.859 277.842 509.09C277.442 509.323 277.204 509.282 277.098 509.222C276.992 509.161 276.836 508.978 276.826 508.526C276.836 508.072 277.001 507.539 277.284 507.049C277.57 506.556 277.949 506.153 278.339 505.934Z" stroke="#C9C9C9"/>
<path opacity="0.4" d="M284.808 502.191C285.208 501.958 285.446 501.999 285.551 502.059C285.659 502.12 285.815 502.304 285.824 502.759C285.823 503.21 285.664 503.737 285.383 504.225C285.101 504.714 284.721 505.12 284.325 505.351C283.925 505.584 283.687 505.543 283.582 505.483C283.474 505.422 283.318 505.238 283.309 504.782C283.31 504.332 283.469 503.805 283.75 503.317C284.032 502.828 284.412 502.422 284.808 502.191Z" stroke="#C9C9C9"/>
<path opacity="0.4" d="M291.003 498.616L291.003 498.616L291.006 498.615C291.405 498.381 291.643 498.423 291.749 498.483C291.856 498.544 292.012 498.728 292.021 499.183C292.02 499.633 291.862 500.161 291.58 500.648C291.299 501.137 290.919 501.542 290.523 501.773C290.14 501.993 289.902 501.953 289.791 501.89C289.682 501.827 289.526 501.641 289.526 501.19C289.526 500.749 289.685 500.22 289.966 499.729C290.247 499.238 290.622 498.835 291.003 498.616Z" stroke="#C9C9C9"/>
<path opacity="0.4" d="M315.776 529.686L316.027 529.541L316.026 529.252L315.863 475.442L315.861 474.579L315.113 475.011L264.453 504.273L264.203 504.418L264.203 504.707L264.366 558.517L264.369 559.38L265.116 558.948L315.776 529.686ZM263.111 503.795L316.979 472.691L317.138 530.164L263.271 561.268L263.111 503.795Z" stroke="#C9C9C9"/>
<path opacity="0.4" d="M361.356 557.668L361.607 557.523L361.606 557.233L361.525 531.141L361.522 530.278L360.775 530.71L341.552 541.805L341.301 541.95L341.301 542.239L341.383 568.331L341.385 569.194L342.133 568.763L361.356 557.668ZM340.209 541.327L362.62 528.39L362.698 558.166L340.287 571.103L340.209 541.327Z" stroke="#C9C9C9"/>
<path opacity="0.4" d="M361.214 503.452L361.465 503.307L361.464 503.017L361.301 449.208L361.299 448.345L360.551 448.777L341.328 459.872L341.077 460.016L341.078 460.306L341.24 514.116L341.243 514.978L341.99 514.547L361.214 503.452ZM339.985 459.414L362.397 446.477L362.556 503.95L340.145 516.887L339.985 459.414Z" stroke="#C9C9C9"/>
<path opacity="0.4" d="M264.41 592.515L271.926 588.175L271.944 596.796L264.428 601.136L264.41 592.515Z" stroke="#C9C9C9"/>
<path opacity="0.4" d="M275.79 598.652L283.307 594.311L283.343 602.953L275.826 607.295L275.79 598.652Z" stroke="#C9C9C9"/>
<path opacity="0.4" d="M275.77 585.952L283.267 581.63L283.303 590.253L275.788 594.593L275.77 585.952Z" stroke="#C9C9C9"/>
<path opacity="0.4" d="M264.432 605.216L271.967 600.874L271.985 609.516L264.467 613.858L264.432 605.216Z" stroke="#C9C9C9"/>
</g>
<g opacity="0.2">
<path opacity="0.4" d="M557.926 536.826L593.528 516.268L593.543 520.318L557.926 540.873V536.826Z" stroke="#C9C9C9"/>
<path opacity="0.4" d="M546.585 482.525H546.585L546.585 482.515C546.577 482.079 546.729 481.559 547.008 481.072C547.288 480.586 547.668 480.18 548.064 479.949C548.464 479.716 548.701 479.757 548.807 479.817C548.914 479.878 549.071 480.062 549.08 480.517C549.079 480.968 548.92 481.495 548.639 481.983C548.357 482.471 547.977 482.877 547.582 483.108C547.198 483.328 546.96 483.288 546.85 483.224C546.74 483.161 546.585 482.976 546.585 482.525Z" stroke="#C9C9C9"/>
<path opacity="0.4" d="M554.257 476.376L554.257 476.376L554.26 476.374C554.645 476.153 554.885 476.192 554.996 476.256C555.106 476.318 555.259 476.499 555.259 476.936C555.259 477.388 555.1 477.917 554.818 478.406C554.536 478.895 554.156 479.301 553.759 479.532C553.36 479.765 553.122 479.724 553.016 479.664C552.909 479.603 552.754 479.42 552.744 478.968C552.754 478.514 552.919 477.981 553.202 477.491C553.488 476.998 553.866 476.596 554.257 476.376Z" stroke="#C9C9C9"/>
<path opacity="0.4" d="M560.723 472.633C561.123 472.4 561.36 472.442 561.466 472.502C561.573 472.563 561.73 472.747 561.739 473.202C561.738 473.652 561.579 474.18 561.298 474.667C561.016 475.156 560.635 475.562 560.239 475.793C559.839 476.026 559.602 475.985 559.496 475.925C559.389 475.864 559.233 475.68 559.223 475.225C559.224 474.774 559.383 474.247 559.665 473.76C559.947 473.271 560.327 472.865 560.723 472.633Z" stroke="#C9C9C9"/>
<path opacity="0.4" d="M566.917 469.059L566.917 469.059L566.92 469.057C567.32 468.824 567.557 468.865 567.663 468.925C567.77 468.986 567.927 469.17 567.936 469.625C567.935 470.076 567.776 470.603 567.495 471.091C567.213 471.579 566.833 471.985 566.438 472.216C566.054 472.436 565.816 472.396 565.706 472.332C565.597 472.269 565.441 472.084 565.441 471.633C565.441 471.192 565.599 470.662 565.88 470.171C566.161 469.68 566.536 469.278 566.917 469.059Z" stroke="#C9C9C9"/>
<path opacity="0.4" d="M591.69 500.128L591.941 499.983L591.94 499.694L591.778 445.884L591.775 445.021L591.028 445.453L540.368 474.715L540.117 474.86L540.118 475.149L540.281 528.959L540.283 529.822L541.031 529.39L591.69 500.128ZM539.026 474.237L592.893 443.134L593.053 500.606L539.185 531.71L539.026 474.237Z" stroke="#C9C9C9"/>
<path opacity="0.4" d="M637.128 473.894L637.379 473.75L637.378 473.46L637.216 419.65L637.213 418.788L636.466 419.219L617.242 430.314L616.992 430.459L616.992 430.749L617.155 484.558L617.157 485.421L617.905 484.99L637.128 473.894ZM615.9 429.857L638.311 416.92L638.471 474.392L616.059 487.329L615.9 429.857Z" stroke="#C9C9C9"/>
<path opacity="0.4" d="M540.325 562.958L547.84 558.617L547.858 567.238L540.343 571.579L540.325 562.958Z" stroke="#C9C9C9"/>
<path opacity="0.4" d="M551.707 569.094L559.224 564.753L559.26 573.395L551.743 577.737L551.707 569.094Z" stroke="#C9C9C9"/>
<path opacity="0.4" d="M551.684 556.394L559.181 552.072L559.217 560.695L551.702 565.035L551.684 556.394Z" stroke="#C9C9C9"/>
<path opacity="0.4" d="M540.346 575.658L547.882 571.317L547.899 579.959L540.382 584.301L540.346 575.658Z" stroke="#C9C9C9"/>
</g>
<g opacity="0.2">
<path opacity="0.4" d="M558.095 757.204L593.696 736.646L593.712 740.696L558.095 761.251V757.204Z" stroke="#C9C9C9"/>
<path opacity="0.4" d="M546.757 702.903H546.757L546.757 702.893C546.749 702.457 546.901 701.936 547.18 701.45C547.46 700.964 547.84 700.558 548.236 700.327C548.636 700.094 548.873 700.135 548.979 700.195C549.086 700.256 549.243 700.44 549.252 700.895C549.251 701.346 549.092 701.873 548.811 702.361C548.529 702.849 548.149 703.255 547.754 703.486C547.37 703.706 547.132 703.666 547.022 703.602C546.912 703.539 546.757 703.354 546.757 702.903Z" stroke="#C9C9C9"/>
<path opacity="0.4" d="M554.425 696.754L554.425 696.755L554.429 696.752C554.813 696.532 555.054 696.571 555.165 696.634C555.275 696.696 555.428 696.877 555.428 697.314C555.428 697.766 555.269 698.295 554.987 698.784C554.705 699.273 554.324 699.679 553.928 699.91C553.528 700.144 553.291 700.102 553.185 700.042C553.078 699.981 552.923 699.798 552.913 699.346C552.923 698.893 553.088 698.359 553.371 697.87C553.656 697.376 554.035 696.974 554.425 696.754Z" stroke="#C9C9C9"/>
<path opacity="0.4" d="M560.896 693.012C561.296 692.778 561.533 692.82 561.639 692.88C561.746 692.941 561.903 693.125 561.912 693.58C561.911 694.03 561.752 694.558 561.471 695.045C561.189 695.534 560.808 695.94 560.412 696.171C560.012 696.405 559.775 696.363 559.669 696.303C559.562 696.242 559.406 696.058 559.396 695.603C559.397 695.152 559.556 694.625 559.837 694.138C560.12 693.649 560.5 693.243 560.896 693.012Z" stroke="#C9C9C9"/>
<path opacity="0.4" d="M567.09 689.437L567.09 689.437L567.093 689.435C567.493 689.202 567.73 689.243 567.836 689.303C567.943 689.364 568.1 689.548 568.109 690.003C568.108 690.454 567.949 690.981 567.668 691.469C567.386 691.957 567.007 692.363 566.611 692.594C566.227 692.814 565.989 692.774 565.879 692.71C565.77 692.647 565.614 692.462 565.614 692.011C565.614 691.57 565.773 691.04 566.053 690.549C566.334 690.058 566.709 689.656 567.09 689.437Z" stroke="#C9C9C9"/>
<path opacity="0.4" d="M591.863 720.507L592.114 720.362L592.113 720.072L591.95 666.263L591.948 665.4L591.2 665.831L540.54 695.093L540.29 695.238L540.291 695.528L540.453 749.337L540.456 750.2L541.203 749.769L591.863 720.507ZM539.198 694.615L593.066 663.512L593.225 720.984L539.358 752.088L539.198 694.615Z" stroke="#C9C9C9"/>
<path opacity="0.4" d="M540.498 783.336L548.013 778.995L548.031 787.616L540.516 791.957L540.498 783.336Z" stroke="#C9C9C9"/>
<path opacity="0.4" d="M551.878 789.472L559.395 785.131L559.43 793.774L551.914 798.115L551.878 789.472Z" stroke="#C9C9C9"/>
<path opacity="0.4" d="M551.86 776.773L559.357 772.45L559.393 781.073L551.878 785.414L551.86 776.773Z" stroke="#C9C9C9"/>
<path opacity="0.4" d="M540.519 796.036L548.055 791.695L548.072 800.337L540.555 804.679L540.519 796.036Z" stroke="#C9C9C9"/>
</g>
<path fill-rule="evenodd" clip-rule="evenodd" d="M370.089 722.448L371.086 721.869L384.038 714.341V715.498L372.085 722.445L388.62 731.982L405.016 722.47L391.013 714.378V713.223L406.014 721.892L407.012 722.469L406.015 723.047L388.622 733.137L371.088 723.024L370.089 722.448Z" fill="#C9C9C9"/>
</svg>
