<svg width="21" height="21" viewBox="0 0 21 21" fill="none" xmlns="http://www.w3.org/2000/svg">
<path d="M19.9461 1.05394C19.2665 0.374309 18.3629 0 17.4018 0C16.4407 0 15.5371 0.374309 14.8575 1.05394L1.71923 14.1921C1.64118 14.2702 1.58334 14.3683 1.55381 14.4786L0.0218375 20.1961C-0.037225 20.4164 0.025816 20.6516 0.18713 20.8129C0.308455 20.9343 0.471574 21 0.638712 21C0.693796 21 0.749332 20.9929 0.803964 20.9783L6.52146 19.4463C6.63171 19.4168 6.72986 19.3589 6.80787 19.2809L19.9461 6.14266C20.6257 5.46304 21 4.55946 21 3.59834C21 2.63714 20.6257 1.73357 19.9461 1.05394ZM14.4337 3.28404L15.6232 4.47345L4.26326 15.8333L3.07385 14.6439L14.4337 3.28404ZM1.54192 19.4582L2.50131 15.8776L5.12246 18.4988L1.54192 19.4582ZM6.35617 17.9262L5.16643 16.7364L16.5263 5.37657L17.7159 6.56623L6.35617 17.9262ZM19.043 5.23946L18.6192 5.66319L15.3369 2.38088L15.7607 1.95714C16.199 1.51877 16.7818 1.27731 17.4018 1.27731C18.0217 1.27731 18.6046 1.51877 19.043 1.95714C19.9478 2.86203 19.9478 4.33453 19.043 5.23946Z" fill="black"/>
</svg>
