<svg width="91" height="36" viewBox="0 0 91 36" fill="none" xmlns="http://www.w3.org/2000/svg">
<g clip-path="url(#clip0)">
<path fill-rule="evenodd" clip-rule="evenodd" d="M26.5134 24.9958C27.226 24.9958 27.9316 25.1367 28.59 25.4104C29.2483 25.6841 29.8465 26.0853 30.3503 26.591C30.8542 27.0967 31.2538 27.697 31.5265 28.3577C31.7991 29.0184 31.9394 29.7266 31.9393 30.4417C31.9393 31.8858 31.3677 33.2709 30.3501 34.2921C29.3326 35.3133 27.9525 35.887 26.5134 35.887C25.0744 35.887 23.6942 35.3133 22.6767 34.2921C21.6591 33.2709 21.0874 31.8859 21.0874 30.4417C21.0854 29.0488 21.6172 27.7084 22.5729 26.6983C22.3668 26.7219 22.1596 26.7337 21.9523 26.7339C20.5133 26.7338 19.1332 26.1601 18.1157 25.1389C17.0982 24.1178 16.5266 22.7328 16.5266 21.2887C16.5266 19.8446 17.0981 18.4597 18.1155 17.4386C19.1329 16.4174 20.5129 15.8437 21.9518 15.8435C22.6644 15.8434 23.37 15.9841 24.0284 16.2577C24.6868 16.5313 25.2851 16.9324 25.789 17.438C26.2929 17.9437 26.6926 18.544 26.9654 19.2047C27.2381 19.8654 27.3785 20.5735 27.3785 21.2887C27.3804 22.6816 26.8486 24.0219 25.893 25.0321C26.099 25.0084 26.3062 24.9964 26.5136 24.9963L26.5134 24.9958Z" fill="#B9B9B9"/>
<path fill-rule="evenodd" clip-rule="evenodd" d="M17.9993 0C19.4384 0 20.8185 0.573705 21.8361 1.59491C22.8537 2.61611 23.4254 4.00116 23.4254 5.44536C23.4254 6.16045 23.285 6.86855 23.0123 7.52921C22.7396 8.18987 22.34 8.79016 21.8361 9.29581C21.3322 9.80146 20.7341 10.2026 20.0758 10.4762C19.4174 10.7499 18.7119 10.8907 17.9993 10.8907C16.5602 10.8907 15.1801 10.317 14.1625 9.29581C13.1449 8.27461 12.5732 6.88956 12.5732 5.44536C12.5732 4.00116 13.1449 2.61611 14.1625 1.59491C15.1801 0.573705 16.5602 0 17.9993 0Z" fill="#B9B9B9"/>
<path fill-rule="evenodd" clip-rule="evenodd" d="M12.7393 25.1092C14.1784 25.1092 15.5585 25.6829 16.5761 26.7041C17.5937 27.7253 18.1653 29.1104 18.1653 30.5546C18.1653 31.9988 17.5937 33.3838 16.5761 34.405C15.5585 35.4263 14.1784 36 12.7393 36C11.3003 35.9999 9.92016 35.4262 8.90261 34.405C7.88506 33.3838 7.31342 31.9988 7.31342 30.5546C7.31342 29.1104 7.88506 27.7254 8.90261 26.7042C9.92016 25.683 11.3003 25.1093 12.7393 25.1092Z" fill="#B9B9B9"/>
<path fill-rule="evenodd" clip-rule="evenodd" d="M22.579 18.2104C22.5801 17.391 22.3964 16.5821 22.0414 15.8442C22.0115 15.8442 21.9818 15.8442 21.9518 15.8442C20.513 15.8444 19.1331 16.4181 18.1158 17.4391C17.0984 18.4601 16.5267 19.8448 16.5266 21.2888C16.5255 22.1079 16.7092 22.9166 17.0641 23.6543C17.0938 23.6543 17.1237 23.6543 17.1537 23.6543C18.5924 23.654 19.9721 23.0804 20.9895 22.0596C22.0068 21.0387 22.5786 19.6542 22.579 18.2104Z" fill="#DDB24A"/>
<path fill-rule="evenodd" clip-rule="evenodd" d="M17.1537 12.7654C18.5927 12.7656 19.9726 13.3393 20.99 14.3605C22.0074 15.3816 22.579 16.7665 22.579 18.2106C22.579 19.6546 22.0074 21.0396 20.99 22.0607C19.9726 23.0819 18.5927 23.6557 17.1537 23.6559C15.7147 23.6559 14.3345 23.0822 13.3169 22.061C12.2994 21.0398 11.7277 19.6548 11.7277 18.2106C11.7277 16.7664 12.2994 15.3814 13.317 14.3602C14.3346 13.3391 15.7147 12.7654 17.1537 12.7654Z" fill="#191000"/>
<path fill-rule="evenodd" clip-rule="evenodd" d="M28.2765 4.81866C29.7156 4.81866 31.0957 5.39237 32.1133 6.41357C33.1309 7.43478 33.7025 8.81983 33.7025 10.264C33.7025 11.7082 33.1309 13.0933 32.1133 14.1145C31.0957 15.1357 29.7156 15.7094 28.2765 15.7094C26.8374 15.7094 25.4573 15.1357 24.4397 14.1145C23.4221 13.0933 22.8505 11.7082 22.8505 10.264C22.8505 8.81983 23.4221 7.43478 24.4397 6.41357C25.4573 5.39237 26.8374 4.81866 28.2765 4.81866Z" fill="#191000"/>
<path fill-rule="evenodd" clip-rule="evenodd" d="M7.70062 6.94C9.13967 6.94 10.5198 7.51369 11.5374 8.53485C12.5549 9.55602 13.1266 10.941 13.1267 12.3852C13.1267 13.5008 12.7854 14.5895 12.149 15.5041C11.5125 16.4187 10.6116 17.1152 9.568 17.4994C10.3987 18.4816 10.8539 19.7284 10.8521 21.0166C10.8521 22.4608 10.2804 23.8459 9.26285 24.8671C8.24526 25.8883 6.86513 26.462 5.42605 26.462C3.98697 26.462 2.60683 25.8883 1.58925 24.8671C0.571671 23.8459 0 22.4608 0 21.0166C5.94887e-06 19.9011 0.341293 18.8124 0.977731 17.8978C1.61417 16.9832 2.51507 16.2867 3.55866 15.9025C2.72796 14.9204 2.27276 13.6736 2.27457 12.3854C2.27461 10.9412 2.8463 9.55619 3.86388 8.53502C4.88145 7.51385 6.26157 6.94017 7.70062 6.94017V6.94Z" fill="#191000"/>
<path d="M48.5306 24.8383L43.2876 11.1819H39.6564L34.393 24.8383H37.6976L38.5547 22.5249H44.3893L45.2258 24.8383H48.5306ZM62.5411 24.8383L57.6041 17.8153L62.2351 11.1819H58.7466L55.6661 15.8505L52.5448 11.1819H49.097L53.728 17.8358L48.791 24.8383H52.2386L55.6659 19.8428L59.0729 24.8383H62.5411ZM69.6609 25.084C73.7817 25.084 76.7807 22.1356 76.7807 18.0207C76.7807 13.9057 73.7817 10.9573 69.6609 10.9573C65.5604 10.9573 62.5614 13.9057 62.5614 18.0207C62.5614 22.1356 65.5604 25.084 69.6609 25.084ZM69.6609 22.5043C67.1521 22.5043 65.5399 20.5594 65.5399 18.0207C65.5399 15.4615 67.1516 13.537 69.6609 13.537C72.1702 13.537 73.8022 15.4615 73.8022 18.0207C73.8022 20.5594 72.1702 22.5043 69.6609 22.5043ZM91 24.8383V11.1819H88.103V19.7604L81.7992 11.1819H78.8207V24.8383H81.7177V15.9324L88.205 24.8383H91ZM43.5936 19.9656H39.3503L41.472 14.0899L43.5936 19.9656Z" fill="#191000"/>
</g>
<defs>
<clipPath id="clip0">
<rect width="91" height="36" fill="white"/>
</clipPath>
</defs>
</svg>
