<?xml version="1.0" encoding="UTF-8"?>
<!-- Created with Inkscape (http://www.inkscape.org/) -->
<svg width="1306.7" height="1306.7" version="1.1" viewBox="0 0 1306.7 1306.7" xmlns="http://www.w3.org/2000/svg">
 <path d="m610.11 1305.3c-117.88-8.1728-231.66-47.814-327.64-114.16-56.074-38.758-113.23-93.945-153.76-148.46-171.35-230.48-171.36-547.48-0.03322-778.67 38.805-52.364 92.014-104.53 145.69-142.82 146.13-104.26 329.86-143.55 506.96-108.41 86.795 17.221 170.06 52.46 242.86 102.78 51.383 35.515 102.77 83.719 141.91 133.12 65.042 82.092 110.32 181.61 129.21 284 25.621 138.87 7.2488 274.42-54.849 404.67-11.02 23.115-13.873 27.133-22.214 31.289-15.137 7.543-32.391 1.2158-38.85-14.246-3.4438-8.2442-2.6465-15.326 3.0523-27.113 33.478-69.245 50.458-126.96 59.797-203.26 3.3895-27.692 3.3763-103.16-0.023-130.67-9.0448-73.189-26.497-133.13-56.873-195.33-68.443-140.16-190.5-248.28-337.64-299.11-47.944-16.561-95.388-26.515-147.05-30.851-20.593-1.7283-72.74-1.7283-93.333 0-139.35 11.695-266.35 69.173-365.2 165.27-100.35 97.558-161.59 223.26-177.03 363.35-2.3708 21.511-2.3708 101.16 0 122.67 15.387 139.61 76.965 266.23 176.36 362.67 100.8 97.798 227.41 154.9 368.26 166.09 25.412 2.0188 86.171 0.9232 110.27-1.9885 94.986-11.475 182.39-43.61 260.67-95.839 8.8-5.8715 19.186-13.029 23.081-15.906 8.5739-6.3327 14.715-9.0288 20.543-9.0189 16.216 0.028 29.184 12.669 29.327 28.59 0.1264 14.061-4.0511 18.486-40.284 42.672-91.038 60.767-191.9 96.73-301.33 107.44-19.608 1.9186-81.271 2.6687-101.89 1.2394zm7.252-268.75c-14.925-4.0107-27.139-14.293-33.89-28.529-3.6563-7.7112-4.1059-9.9896-4.0778-20.667 0.0408-15.526 3.422-24.467 13.278-35.112 24.868-26.861 68.081-20.249 83.743 12.813 3.8936 8.2194 4.2475 10.077 4.2473 22.3-2.4e-4 11.862-0.40683 14.161-3.684 20.832-7.4828 15.232-20.686 25.67-36.715 29.023-9.0792 1.8996-13.896 1.7609-22.902-0.6592zm2.3576-164.96c-8.9013-2.8165-16.4-9.2929-20.553-17.75l-3.8369-7.8141-0.43697-42.667c-0.66679-65.106 1.8245-85.014 13.682-109.33 13.221-27.118 35.079-48.835 71.541-71.082 5.1817-3.1615 24.982-13.803 44.001-23.647s40.61-21.658 47.981-26.252c43.423-27.064 60.364-56.307 58.134-100.35-0.91689-18.117-4.4986-32.38-12.054-48-20.009-41.371-62.474-70.582-120.85-83.132-42.429-9.1219-93.814-6.9848-129.29 5.3772-55.222 19.241-98.768 62.116-113.5 111.76-2.5884 8.7199-2.9834 13.243-3.0858 35.333-0.1172 25.286-0.1244 25.345-3.8733 31.723-14.145 24.064-49.314 21.52-60.759-4.3937-5.9462-13.464-6.108-45.048-0.3654-71.329 16.581-75.884 79.793-141.44 162.61-168.63 42.56-13.976 87.47-17.641 137.61-11.231 102.93 13.16 179.08 68.943 203.87 149.35 6.2859 20.38 8.5021 35.792 8.5104 59.183 0.0177 49.657-14.688 86.47-47.67 119.33-21.693 21.615-38.195 32.377-95.993 62.604-21.439 11.212-42.523 22.636-46.851 25.385-20.771 13.193-34.717 27.919-40.741 43.02-2.9652 7.4332-3.0752 9.2775-3.759 62.991-0.69517 54.609-0.7452 55.416-3.8216 61.663-7.3563 14.938-25.087 22.776-40.493 17.901z" stroke-width="1.3333"/>
</svg>
