<svg width="30" height="30" viewBox="0 0 30 30" fill="none" xmlns="http://www.w3.org/2000/svg">
<path d="M18.1446 25C18.1446 27.7615 15.9059 30 13.1445 30C10.383 30 8.14453 27.7615 8.14453 25C8.14453 22.2386 10.383 19.9999 13.1445 19.9999C15.9059 19.9999 18.1446 22.2386 18.1446 25Z" fill="#EDE335"/>
<path d="M21.9044 14.9014C17.6669 14.2962 14.3946 10.6524 14.3946 6.25012C14.3946 4.99997 14.6619 3.8139 15.1357 2.73747C14.4958 2.58755 13.8309 2.50012 13.1445 2.50012C8.31963 2.50012 4.39453 6.42499 4.39453 11.25V14.735C4.39453 17.2088 3.31078 19.5438 1.40945 21.1512C0.923309 21.5662 0.644531 22.1725 0.644531 22.8125C0.644531 24.0189 1.62575 25.0001 2.83195 25.0001H23.457C24.6634 25.0001 25.6446 24.0189 25.6446 22.8125C25.6446 22.1725 25.3658 21.5662 24.8671 21.14C23.0221 19.5788 21.9521 17.3124 21.9044 14.9014Z" fill="#F7EE55"/>
<path d="M29.3946 6.25008C29.3946 9.70184 26.5963 12.4999 23.1445 12.4999C19.6928 12.4999 16.8945 9.70184 16.8945 6.25008C16.8945 2.79831 19.6928 0 23.1445 0C26.5963 0 29.3946 2.79831 29.3946 6.25008Z" fill="#FF0000"/>
</svg>
