<svg width="151" height="151" viewBox="0 0 151 151" fill="none" xmlns="http://www.w3.org/2000/svg">
<g clip-path="url(#clip0)">
<path d="M46.209 46.5243H24.3788C24.2045 46.5243 24.063 46.3831 24.063 46.2085V24.3784C24.063 24.2041 24.2042 24.0625 24.3788 24.0625H46.209C46.3833 24.0625 46.5248 24.2038 46.5248 24.3784V46.2085C46.5248 46.3831 46.3835 46.5243 46.209 46.5243Z" fill="#617881"/>
<path d="M46.209 126.936H24.3788C24.2045 126.936 24.063 126.795 24.063 126.621V104.79C24.063 104.616 24.2042 104.475 24.3788 104.475H46.209C46.3833 104.475 46.5248 104.616 46.5248 104.79V126.621C46.5248 126.795 46.3835 126.936 46.209 126.936Z" fill="#617881"/>
<path d="M126.621 126.936H104.791C104.616 126.936 104.475 126.795 104.475 126.621V104.79C104.475 104.616 104.616 104.475 104.791 104.475H126.621C126.795 104.475 126.937 104.616 126.937 104.79V126.621C126.937 126.795 126.795 126.936 126.621 126.936Z" fill="#617881"/>
<path d="M63.758 127.767H71.4802V135.489C71.4802 135.666 71.3369 135.809 71.1602 135.809H63.7577C63.581 135.809 63.4377 135.666 63.4377 135.489V128.087C63.4383 127.91 63.5813 127.767 63.758 127.767Z" fill="#617881"/>
<path d="M23.2334 63.758V71.4802H15.5111C15.3345 71.4802 15.1911 71.3369 15.1911 71.1602V63.758C15.1911 63.5813 15.3345 63.438 15.5111 63.438H22.9137C23.09 63.438 23.2334 63.581 23.2334 63.758Z" fill="#617881"/>
<path d="M103.643 15.5109V22.9132C103.643 23.0898 103.5 23.2331 103.323 23.2331H87.5617V15.5109C87.5617 15.3343 87.705 15.1909 87.8817 15.1909H103.323C103.5 15.1909 103.643 15.3343 103.643 15.5109Z" fill="#617881"/>
<path d="M135.809 63.758V87.2417C135.809 87.4184 135.666 87.5617 135.489 87.5617H120.047C119.871 87.5617 119.727 87.4184 119.727 87.2417V71.8002C119.727 71.6235 119.871 71.4802 120.047 71.4802H127.447C127.623 71.4802 127.767 71.3369 127.767 71.1602V63.438H135.489C135.666 63.438 135.809 63.581 135.809 63.758Z" fill="#617881"/>
<path d="M135.489 63.4385H135.049V87.5619H135.489C135.666 87.5619 135.809 87.4186 135.809 87.2419V63.7582C135.809 63.5818 135.666 63.4385 135.489 63.4385Z" fill="#475959"/>
<path d="M135.809 23.5531V47.0369C135.809 47.2135 135.666 47.3569 135.489 47.3569H127.767V39.6343C127.767 39.4577 127.623 39.3143 127.447 39.3143H111.685V15.5109C111.685 15.3343 111.828 15.1909 112.005 15.1909H119.408C119.584 15.1909 119.728 15.3343 119.728 15.5109V22.9132C119.728 23.0898 119.871 23.2331 120.048 23.2331H135.489C135.666 23.2331 135.809 23.3765 135.809 23.5531Z" fill="#617881"/>
<path d="M135.489 23.2334H135.049V47.3571H135.489C135.666 47.3571 135.809 47.2138 135.809 47.0371V23.5534C135.809 23.3767 135.666 23.2334 135.489 23.2334Z" fill="#475959"/>
<path d="M47.3568 71.4807V87.2422C47.3568 87.4189 47.2135 87.5622 47.0368 87.5622H31.5923C31.4157 87.5622 31.2723 87.4189 31.2723 87.2422V79.84C31.2723 79.6633 31.129 79.52 30.9523 79.52H23.5533C23.3767 79.52 23.2334 79.3766 23.2334 79.2V71.4807H30.9526C31.1293 71.4807 31.2726 71.3374 31.2726 71.1607V63.7585C31.2726 63.5818 31.416 63.4385 31.5926 63.4385H38.9952C39.1718 63.4385 39.3152 63.5818 39.3152 63.7585V71.1607C39.3152 71.3374 39.4585 71.4807 39.6351 71.4807H47.3568Z" fill="#617881"/>
<path d="M87.5617 87.8818V119.408C87.5617 119.584 87.4184 119.728 87.2417 119.728H79.8395C79.6628 119.728 79.5195 119.871 79.5195 120.048V127.767H71.4802V120.048C71.4802 119.871 71.3369 119.728 71.1602 119.728H63.7577C63.581 119.728 63.4377 119.584 63.4377 119.408V103.963C63.4377 103.786 63.581 103.643 63.7577 103.643H71.1602C71.3369 103.643 71.4802 103.5 71.4802 103.323V87.5615H87.2417C87.4187 87.5618 87.5617 87.7051 87.5617 87.8818Z" fill="#617881"/>
<path d="M112.005 47.3566C111.828 47.3566 111.685 47.2132 111.685 47.0366V39.3143H95.9236C95.747 39.3143 95.6036 39.171 95.6036 38.9944V31.5921C95.6036 31.4155 95.4603 31.2721 95.2837 31.2721H87.8814C87.7048 31.2721 87.5614 31.1288 87.5614 30.9521V23.2331H79.8392C79.6625 23.2331 79.5192 23.0898 79.5192 22.9132V15.5109C79.5192 15.3343 79.3759 15.1909 79.1992 15.1909H71.7999C71.6233 15.1909 71.4799 15.3343 71.4799 15.5109V22.9132C71.4799 23.0898 71.3366 23.2331 71.1599 23.2331H63.7577C63.581 23.2331 63.4377 23.3765 63.4377 23.5531V38.9947C63.4377 39.1713 63.581 39.3146 63.7577 39.3146H71.1599C71.3366 39.3146 71.4799 39.458 71.4799 39.6346V47.0372C71.4799 47.2138 71.3366 47.3572 71.1599 47.3572H63.7577C63.581 47.3572 63.4377 47.5005 63.4377 47.6772V63.1258C63.4377 63.2986 63.2976 63.4387 63.1251 63.4387H47.6765C47.4998 63.4387 47.3565 63.582 47.3565 63.7587V71.4809H55.0758C55.2524 71.4809 55.3958 71.6242 55.3958 71.8009V87.2424C55.3958 87.4191 55.5391 87.5624 55.7158 87.5624H71.4802V79.8402C71.4802 79.6635 71.6235 79.5202 71.8002 79.5202H79.1995C79.3762 79.5202 79.5195 79.3768 79.5195 79.2002V71.7938C79.5195 71.621 79.6596 71.4812 79.8321 71.4812H95.291C95.4638 71.4812 95.6036 71.6213 95.6036 71.7938V87.2424C95.6036 87.4191 95.747 87.5624 95.9236 87.5624H111.365C111.542 87.5624 111.685 87.4191 111.685 87.2424V63.7587C111.685 63.582 111.828 63.4387 112.005 63.4387H127.767V47.3575L112.005 47.3566Z" fill="#617881"/>
<path d="M55.0814 57.6753H15.507C14.0763 57.6753 12.9126 56.5113 12.9126 55.0809V15.5065C12.9126 14.0762 14.0766 12.9121 15.507 12.9121H55.0814C56.512 12.9121 57.6758 14.0762 57.6758 15.5065V55.0809C57.6758 56.5116 56.5118 57.6753 55.0814 57.6753ZM17.4697 53.1182H53.1184V17.4695H17.4697V53.1182Z" fill="#617881"/>
<path d="M55.0814 138.087H15.507C14.0763 138.087 12.9126 136.923 12.9126 135.493V95.9186C12.9126 94.4883 14.0766 93.3242 15.507 93.3242H55.0814C56.512 93.3242 57.6758 94.4883 57.6758 95.9186V135.493C57.6758 136.924 56.5118 138.087 55.0814 138.087ZM17.4697 133.53H53.1184V97.8816H17.4697V133.53ZM55.0814 97.8816H55.0846H55.0814Z" fill="#617881"/>
<path d="M135.493 138.087H95.9186C94.488 138.087 93.3242 136.923 93.3242 135.493V95.9186C93.3242 94.4883 94.4883 93.3242 95.9186 93.3242H135.493C136.924 93.3242 138.087 94.4883 138.087 95.9186V135.493C138.087 136.924 136.924 138.087 135.493 138.087ZM97.8816 133.53H133.53V97.8816H97.8816V133.53Z" fill="#617881"/>
<path d="M112.154 7.59571H142.312C142.915 7.59571 143.405 8.08499 143.405 8.68869V38.8456C143.405 39.4493 143.894 39.9386 144.498 39.9386H149.907C150.511 39.9386 151 39.4493 151 38.8456V1.09298C151 0.489275 150.511 0 149.907 0H112.154C111.551 0 111.061 0.489275 111.061 1.09298V6.50273C111.062 7.10614 111.551 7.59571 112.154 7.59571Z" fill="black"/>
<path d="M7.59571 38.8456V8.6884C7.59571 8.08469 8.08499 7.59542 8.68869 7.59542H38.8459C39.4496 7.59542 39.9389 7.10614 39.9389 6.50244V1.09298C39.9389 0.489275 39.4496 0 38.8459 0H1.09298C0.489275 0 0 0.489275 0 1.09298V38.8456C0 39.4493 0.489275 39.9386 1.09298 39.9386H6.50273C7.10614 39.9383 7.59571 39.449 7.59571 38.8456Z" fill="black"/>
<path d="M143.404 112.155V142.312C143.404 142.915 142.915 143.405 142.311 143.405H112.154C111.551 143.405 111.061 143.894 111.061 144.498V149.907C111.061 150.511 111.551 151 112.154 151H149.907C150.511 151 151 150.511 151 149.907V112.155C151 111.551 150.511 111.062 149.907 111.062H144.497C143.894 111.062 143.404 111.551 143.404 112.155Z" fill="black"/>
<path d="M38.8456 143.404H8.6884C8.08469 143.404 7.59542 142.915 7.59542 142.311V112.155C7.59542 111.551 7.10614 111.062 6.50244 111.062H1.09298C0.489275 111.062 0 111.551 0 112.155V149.907C0 150.511 0.489275 151 1.09298 151H38.8456C39.4493 151 39.9386 150.511 39.9386 149.907V144.497C39.9383 143.894 39.449 143.404 38.8456 143.404Z" fill="black"/>
</g>
<defs>
<clipPath id="clip0">
<rect width="151" height="151" fill="white"/>
</clipPath>
</defs>
</svg>
