<svg width="170" height="170" viewBox="0 0 170 170" fill="none" xmlns="http://www.w3.org/2000/svg">
<path d="M87.6562 140.781H130.156L148.75 162.031H162.031V119.531L148.75 103.594V87.6562C148.75 82.0204 146.511 76.6154 142.526 72.6302C138.541 68.6451 133.136 66.4063 127.5 66.4062H114.219C111.401 66.4062 108.698 67.5257 106.706 69.5182C104.713 71.5108 103.594 74.2133 103.594 77.0312C103.594 79.8492 104.713 82.5517 106.706 84.5443C108.698 86.5368 111.401 87.6562 114.219 87.6562H87.6562V140.781Z" fill="#EFBA92"/>
<path d="M98.9018 124.844H106.25C109.068 124.844 111.77 123.724 113.763 121.732C115.756 119.739 116.875 117.037 116.875 114.219V47.8125H74.375L80.067 77.0312L88.5129 116.443C89.022 118.821 90.3311 120.952 92.2218 122.481C94.1125 124.01 96.4704 124.844 98.9018 124.844Z" fill="#596063"/>
<path d="M87.6562 77.0312H79.6875C75.2865 77.0312 71.7188 80.599 71.7188 85C71.7188 89.401 75.2865 92.9688 79.6875 92.9688H87.6562C92.0573 92.9688 95.625 89.401 95.625 85C95.625 80.599 92.0573 77.0312 87.6562 77.0312Z" fill="#F7CCA9"/>
<path d="M95.625 92.9688H79.6875C75.2865 92.9688 71.7188 96.5365 71.7188 100.938C71.7188 105.339 75.2865 108.906 79.6875 108.906H95.625C100.026 108.906 103.594 105.339 103.594 100.938C103.594 96.5365 100.026 92.9688 95.625 92.9688Z" fill="#F7CCA9"/>
<path d="M92.9688 108.906H79.6875C75.2865 108.906 71.7188 112.474 71.7188 116.875C71.7188 121.276 75.2865 124.844 79.6875 124.844H92.9688C97.3698 124.844 100.938 121.276 100.938 116.875C100.938 112.474 97.3698 108.906 92.9688 108.906Z" fill="#F7CCA9"/>
<path d="M90.3125 124.844H85C80.599 124.844 77.0312 128.411 77.0312 132.812C77.0312 137.214 80.599 140.781 85 140.781H90.3125C94.7135 140.781 98.2812 137.214 98.2812 132.812C98.2812 128.411 94.7135 124.844 90.3125 124.844Z" fill="#F7CCA9"/>
<path d="M148.75 87.6562C148.75 82.0204 146.511 76.6154 142.526 72.6302C138.541 68.6451 133.136 66.4063 127.5 66.4062H114.219C111.401 66.4062 108.698 67.5257 106.706 69.5182C104.713 71.5108 103.594 74.2133 103.594 77.0312C103.594 79.8492 104.713 82.5517 106.706 84.5443C108.698 86.5368 111.401 87.6562 114.219 87.6562H148.75Z" fill="#EFBA92"/>
<path d="M114.219 50.4688H39.8438L31.875 7.96875L115.537 17.4316C118.106 17.7528 120.47 19.0013 122.184 20.9424C123.897 22.8836 124.843 25.3838 124.844 27.9733V39.8438C124.844 42.6617 123.724 45.3642 121.732 47.3568C119.739 49.3493 117.037 50.4688 114.219 50.4688Z" fill="#6A7073"/>
<path d="M57.9693 50.4688H39.8438L31.875 7.96875L50.8473 10.1137L57.9693 50.4688Z" fill="#4F5659"/>
<path d="M146.751 163.78C147 164.065 147.308 164.294 147.652 164.45C147.997 164.606 148.371 164.687 148.75 164.687H162.031C162.736 164.687 163.411 164.408 163.91 163.909C164.408 163.411 164.688 162.736 164.688 162.031V119.531C164.688 118.91 164.47 118.308 164.072 117.83L151.406 102.631V87.6561C151.399 81.318 148.878 75.2415 144.396 70.7597C139.915 66.278 133.838 63.757 127.5 63.7499H119.531V52.0126C121.898 50.9773 123.912 49.2753 125.327 47.1142C126.742 44.9532 127.497 42.4268 127.5 39.8436V27.9732C127.494 24.7326 126.305 21.6056 124.158 19.1787C122.01 16.7519 119.051 15.192 115.835 14.7915L32.1738 5.32932C31.7609 5.28263 31.3428 5.33346 30.9532 5.47773C30.5635 5.62199 30.2131 5.85566 29.9301 6.15996C29.6472 6.46427 29.4396 6.83071 29.324 7.22983C29.2084 7.62896 29.188 8.04964 29.2646 8.45805L37.2333 50.9581C37.3475 51.567 37.6709 52.1168 38.1475 52.5125C38.6242 52.9082 39.2242 53.1248 39.8438 53.1249H72.2278L76.8652 74.7587C75.0181 75.2663 73.3427 76.2644 72.0167 77.647C70.6908 79.0296 69.7637 80.7452 69.3337 82.612C68.9037 84.4788 68.9869 86.4271 69.5745 88.2504C70.162 90.0738 71.232 91.7041 72.671 92.9686C71.5373 93.9638 70.629 95.1894 70.0067 96.5635C69.3844 97.9377 69.0625 99.4289 69.0625 100.937C69.0625 102.446 69.3844 103.937 70.0067 105.311C70.629 106.685 71.5373 107.911 72.671 108.906C71.2776 110.13 70.2291 111.698 69.6302 113.453C69.0312 115.208 68.9026 117.09 69.2571 118.91C69.6117 120.731 70.437 122.427 71.6509 123.829C72.8649 125.231 74.425 126.291 76.1759 126.902C75.1036 128.501 74.486 130.361 74.3893 132.284C74.2925 134.206 74.7201 136.119 75.6265 137.818C76.5328 139.516 77.8837 140.936 79.5348 141.926C81.1859 142.916 83.0749 143.438 85 143.437H106.785C108.017 149.433 111.279 154.82 116.02 158.691C120.761 162.561 126.692 164.679 132.812 164.687C133.517 164.687 134.193 164.408 134.691 163.909C135.189 163.411 135.469 162.736 135.469 162.031C135.469 161.327 135.189 160.651 134.691 160.153C134.193 159.655 133.517 159.375 132.812 159.375C128.103 159.369 123.528 157.801 119.804 154.917C116.081 152.033 113.419 147.996 112.235 143.437H128.951L146.751 163.78ZM42.0484 47.8124L35.1482 11.012L48.1306 12.4803L55.1975 47.8124H42.0484ZM60.615 47.8124L53.6755 13.1072L115.207 20.0659C117.133 20.3094 118.905 21.2467 120.19 22.7023C121.474 24.1578 122.185 26.0317 122.188 27.9732V39.8436C122.185 41.9564 121.345 43.9819 119.851 45.4758C118.357 46.9697 116.331 47.81 114.219 47.8124H60.615ZM79.6875 79.6874H85C86.409 79.6874 87.7602 80.2471 88.7565 81.2434C89.7528 82.2397 90.3125 83.5909 90.3125 84.9999C90.3125 86.4089 89.7528 87.7601 88.7565 88.7564C87.7602 89.7527 86.409 90.3124 85 90.3124H79.6875C78.2785 90.3124 76.9273 89.7527 75.931 88.7564C74.9347 87.7601 74.375 86.4089 74.375 84.9999C74.375 83.5909 74.9347 82.2397 75.931 81.2434C76.9273 80.2471 78.2785 79.6874 79.6875 79.6874ZM90.3125 138.125H85C83.591 138.125 82.2398 137.565 81.2435 136.569C80.2472 135.573 79.6875 134.221 79.6875 132.812C79.6875 131.403 80.2472 130.052 81.2435 129.056C82.2398 128.06 83.591 127.5 85 127.5H90.3125C91.7215 127.5 93.0727 128.06 94.069 129.056C95.0653 130.052 95.625 131.403 95.625 132.812C95.625 134.221 95.0653 135.573 94.069 136.569C93.0727 137.565 91.7215 138.125 90.3125 138.125ZM92.9688 122.187H79.6875C78.2785 122.187 76.9273 121.628 75.931 120.631C74.9347 119.635 74.375 118.284 74.375 116.875C74.375 115.466 74.9347 114.115 75.931 113.118C76.9273 112.122 78.2785 111.562 79.6875 111.562H92.9688C94.3777 111.562 95.729 112.122 96.7253 113.118C97.7215 114.115 98.2812 115.466 98.2812 116.875C98.2812 118.284 97.7215 119.635 96.7253 120.631C95.729 121.628 94.3777 122.187 92.9688 122.187ZM95.625 106.25H79.6875C78.2785 106.25 76.9273 105.69 75.931 104.694C74.9347 103.698 74.375 102.346 74.375 100.937C74.375 99.5284 74.9347 98.1772 75.931 97.1809C76.9273 96.1846 78.2785 95.6249 79.6875 95.6249H95.625C97.034 95.6249 98.3852 96.1846 99.3815 97.1809C100.378 98.1772 100.938 99.5284 100.938 100.937C100.938 102.346 100.378 103.698 99.3815 104.694C98.3852 105.69 97.034 106.25 95.625 106.25ZM106.25 138.125H99.5098C100.446 136.511 100.939 134.678 100.939 132.812C100.939 130.947 100.446 129.114 99.5098 127.5H106.25V138.125ZM106.25 122.187H102.166C103.261 120.3 103.746 118.119 103.555 115.945C103.364 113.771 102.506 111.709 101.098 110.042C103.089 108.846 104.634 107.03 105.495 104.872C106.356 102.715 106.486 100.334 105.865 98.0956C105.244 95.857 103.906 93.8838 102.057 92.478C100.207 91.0723 97.9481 90.3116 95.625 90.3124H94.1973C95.1322 88.6979 95.6252 86.8655 95.6266 84.9999C95.628 83.1342 95.1377 81.3011 94.2052 79.6852C93.2727 78.0693 91.9309 76.7277 90.3149 75.7954C88.6988 74.8632 86.8657 74.3732 85 74.3749H82.2143L77.6621 53.1249H114.219V63.7499C110.927 63.7485 107.752 64.9694 105.31 67.1759C102.868 69.3823 101.331 72.4172 101 75.6919C100.668 78.9667 101.564 82.248 103.514 84.8997C105.464 87.5513 108.329 89.3844 111.554 90.0434C111.637 93.2532 112.112 99.0239 114.219 104.607V114.219C114.216 116.331 113.376 118.357 111.882 119.851C110.388 121.345 108.363 122.185 106.25 122.187ZM111.562 138.125V126.388C113.929 125.352 115.943 123.65 117.358 121.489C118.773 119.328 119.528 116.802 119.531 114.219V113.339C120.701 114.562 122.028 115.623 123.477 116.496V116.494C123.776 116.673 124.107 116.792 124.452 116.843C124.796 116.895 125.148 116.878 125.486 116.793C125.824 116.709 126.142 116.558 126.422 116.351C126.702 116.143 126.939 115.883 127.118 115.584C127.297 115.285 127.416 114.954 127.467 114.609C127.518 114.265 127.501 113.913 127.417 113.575C127.332 113.237 127.182 112.919 126.975 112.639C126.767 112.359 126.507 112.123 126.208 111.943V111.941C123.023 110.03 120.919 106.939 119.529 103.596V103.594C117.514 98.75 117.002 93.3814 116.886 90.3124H124.844C125.548 90.3124 126.224 90.0325 126.722 89.5344C127.22 89.0362 127.5 88.3606 127.5 87.6561C127.5 86.9517 127.22 86.276 126.722 85.7779C126.224 85.2797 125.548 84.9999 124.844 84.9999H114.219C112.105 84.9999 110.078 84.1603 108.584 82.6659C107.09 81.1715 106.25 79.1446 106.25 77.0311C106.25 74.9177 107.09 72.8908 108.584 71.3964C110.078 69.9019 112.105 69.0624 114.219 69.0624H127.5C132.43 69.068 137.156 71.0288 140.642 74.5146C144.127 78.0004 146.088 82.7265 146.094 87.6561V103.594C146.094 104.215 146.312 104.817 146.709 105.294L159.375 120.494V159.375H149.955L132.155 139.032C131.906 138.747 131.599 138.519 131.254 138.362C130.909 138.206 130.535 138.125 130.156 138.125H111.562Z" fill="black"/>
<path d="M24.3621 21.5725C24.1155 21.3258 23.8227 21.1301 23.5004 20.9966C23.1781 20.8631 22.8327 20.7944 22.4838 20.7944C22.135 20.7944 21.7896 20.8631 21.4673 20.9966C21.145 21.1301 20.8522 21.3258 20.6055 21.5725C17.6167 24.5613 15.9376 28.6151 15.9376 32.8419C15.9376 37.0688 17.6167 41.1226 20.6055 44.1114C20.8522 44.3581 21.145 44.5537 21.4673 44.6872C21.7896 44.8207 22.135 44.8894 22.4838 44.8894C22.8327 44.8894 23.1781 44.8207 23.5004 44.6872C23.8226 44.5537 24.1155 44.3581 24.3621 44.1114C24.6088 43.8648 24.8045 43.5719 24.938 43.2496C25.0714 42.9274 25.1402 42.582 25.1402 42.2331C25.1402 41.8843 25.0714 41.5389 24.938 41.2166C24.8045 40.8943 24.6088 40.6015 24.3621 40.3548C23.3755 39.3682 22.5929 38.1969 22.0589 36.9078C21.5249 35.6187 21.2501 34.2371 21.2501 32.8418C21.2501 31.4465 21.5249 30.0648 22.0589 28.7758C22.5929 27.4867 23.3755 26.3154 24.3621 25.3287C24.8602 24.8306 25.14 24.155 25.14 23.4506C25.14 22.7462 24.8602 22.0706 24.3621 21.5725Z" fill="black"/>
<path d="M16.8489 17.8156C17.3421 17.3165 17.6177 16.6425 17.6156 15.9408C17.6135 15.2391 17.3339 14.5668 16.8377 14.0706C16.3416 13.5744 15.6692 13.2947 14.9676 13.2925C14.2659 13.2903 13.5918 13.5659 13.0927 14.059C8.11861 19.0444 5.32518 25.7992 5.32518 32.8415C5.32518 39.8839 8.11861 46.6387 13.0927 51.624C13.5927 52.113 14.2653 52.385 14.9646 52.3811C15.664 52.3772 16.3335 52.0976 16.828 51.6031C17.3225 51.1086 17.6021 50.4391 17.606 49.7398C17.6099 49.0404 17.3379 48.3678 16.8489 47.8678C12.8697 43.8794 10.635 38.4756 10.635 32.8417C10.635 27.2078 12.8697 21.804 16.8489 17.8156Z" fill="black"/>
</svg>
