<svg width="21" height="21" viewBox="0 0 21 21" fill="none" xmlns="http://www.w3.org/2000/svg">
<g clip-path="url(#clip0)">
<path d="M14.5021 7.24035L12.8582 7.18005L12.5018 16.9124L14.1457 16.9725L14.5021 7.24035Z" fill="black"/>
<path d="M11.3224 7.21021H9.67755V16.9426H11.3224V7.21021Z" fill="black"/>
<path d="M8.49786 16.9121L8.14147 7.17975L6.49765 7.24008L6.85408 16.9724L8.49786 16.9121Z" fill="black"/>
<path d="M0.712807 3.15277V4.79766H2.42681L3.78656 20.2497C3.82384 20.6743 4.17945 21 4.60572 21H16.3665C16.7929 21 17.1487 20.6741 17.1857 20.2494L18.5455 4.79766H20.2872V3.15277H0.712807ZM15.6132 19.3551H5.35885L4.07802 4.79766H16.8943L15.6132 19.3551Z" fill="black"/>
<path d="M13.1867 0H7.81332C7.05748 0 6.44257 0.614906 6.44257 1.37074V3.97519H8.08746V1.64489H12.9125V3.97519H14.5574V1.37074C14.5574 0.614906 13.9425 0 13.1867 0Z" fill="black"/>
</g>
<defs>
<clipPath id="clip0">
<rect width="21" height="21" fill="white"/>
</clipPath>
</defs>
</svg>
