<svg width="57" height="53" viewBox="0 0 57 53" fill="none" xmlns="http://www.w3.org/2000/svg">
<path d="M28.4473 50.9215H31.3411C45.1903 50.9215 56.559 39.6957 56.559 25.5596C56.3523 11.6313 45.1903 0.405518 31.3411 0.405518H28.4473C14.5981 0.405518 3.43604 11.6313 3.43604 25.7675C3.43604 39.6957 14.5981 50.9215 28.4473 50.9215Z" fill="#979695"/>
<path d="M26.006 52.3767H28.8999C42.749 52.3767 54.1178 41.1509 54.1178 27.0148C54.1178 13.0865 42.9557 1.65283 28.8999 1.65283H26.006C11.9501 1.86072 0.788086 13.0865 0.788086 27.0148C0.788086 41.1509 11.9501 52.3767 26.006 52.3767Z" fill="white"/>
<g clip-path="url(#clip0)">
<path d="M42.3452 25.0008H29.3924V12.0477C29.3924 11.1542 28.667 10.4287 27.7731 10.4287C26.8796 10.4287 26.1541 11.1542 26.1541 12.0477V25.0008H13.2011C12.3075 25.0008 11.582 25.7262 11.582 26.6198C11.582 27.5137 12.3075 28.2391 13.2011 28.2391H26.1541V41.1919C26.1541 42.0857 26.8796 42.8112 27.7731 42.8112C28.667 42.8112 29.3924 42.0857 29.3924 41.1919V28.2391H42.3452C43.239 28.2391 43.9645 27.5137 43.9645 26.6198C43.9645 25.7262 43.239 25.0008 42.3452 25.0008Z" fill="black"/>
</g>
<defs>
<clipPath id="clip0">
<rect width="32.3824" height="32.3824" fill="white" transform="translate(11.582 10.4287)"/>
</clipPath>
</defs>
</svg>
