<svg width="57" height="53" viewBox="0 0 57 53" fill="none" xmlns="http://www.w3.org/2000/svg">
<g clip-path="url(#clip0)">
<path d="M28.1623 50.6022H31.0611C44.9339 50.6022 56.322 39.3573 56.322 25.197C56.115 11.2449 44.9339 0 31.0611 0H28.1623C14.2895 0 3.1084 11.2449 3.1084 25.4052C3.1084 39.3573 14.2895 50.6022 28.1623 50.6022Z" fill="#979695"/>
<path d="M25.717 52.06H28.6158C42.4886 52.06 53.8768 40.815 53.8768 26.6547C53.8768 12.7027 42.6957 1.24951 28.6158 1.24951H25.717C11.6371 1.45775 0.456055 12.7027 0.456055 26.6547C0.456055 40.815 11.6371 52.06 25.717 52.06Z" fill="white"/>
<g clip-path="url(#clip1)">
<path d="M35.1323 21.3101L32.4132 21.2104L31.8237 37.2951L34.5428 37.3943L35.1323 21.3101Z" fill="black"/>
<path d="M29.8727 21.2603H27.1519V37.3449H29.8727V21.2603Z" fill="black"/>
<path d="M25.2006 37.2946L24.6112 21.21L21.8921 21.3097L22.4817 37.3943L25.2006 37.2946Z" fill="black"/>
<path d="M12.3232 14.5547V17.2732H15.1584L17.4076 42.8107C17.4692 43.5125 18.0574 44.0507 18.7625 44.0507H38.2162C38.9214 44.0507 39.51 43.512 39.5712 42.8102L41.8204 17.2732H44.7014V14.5547H12.3232ZM36.9701 41.3322H20.0083L17.8897 17.2732H39.0892L36.9701 41.3322Z" fill="black"/>
<path d="M32.9563 9.34424H24.0681C22.8179 9.34424 21.8008 10.3605 21.8008 11.6097V15.914H24.5216V12.0627H32.5028V15.914H35.2236V11.6097C35.2236 10.3605 34.2065 9.34424 32.9563 9.34424Z" fill="black"/>
</g>
</g>
<defs>
<clipPath id="clip0">
<rect width="56.1124" height="52.0599" fill="white" transform="translate(0.456055)"/>
</clipPath>
<clipPath id="clip1">
<rect width="34.7363" height="34.7066" fill="white" transform="translate(11.144 9.34424)"/>
</clipPath>
</defs>
</svg>
