<?xml version="1.0" encoding="utf-8"?>
<!-- Svg Vector Icons : http://www.onlinewebfonts.com/icon -->
<!DOCTYPE svg PUBLIC "-//W3C//DTD SVG 1.1//EN" "http://www.w3.org/Graphics/SVG/1.1/DTD/svg11.dtd">
<svg version="1.1" xmlns="http://www.w3.org/2000/svg" xmlns:xlink="http://www.w3.org/1999/xlink" x="0px" y="0px" viewBox="0 0 1000 1000" enable-background="new 0 0 1000 1000" xml:space="preserve">
<metadata> Svg Vector Icons : http://www.onlinewebfonts.com/icon </metadata>
<g><g transform="translate(0.000000,511.000000) scale(0.100000,-0.100000)"><path d="M8218.5,4995.7c-236.9-50.4-125,57-3911.2-3724.7C2319.9-716.5,683.5-2366,672.5-2396.7C630.8-2497.7,100-4559.6,100-4616.7c0-89.9,79-171.1,166.7-171.1c41.7,0,565.9,127.2,1167,285.2l1090.2,285.2L6139-604.6c4069.1,4069.1,3755.4,3729.1,3755.4,4075.7c-2.2,291.7-41.7,355.4-566,884c-243.5,245.7-484.8,476-535.2,511.1C8626.5,4982.5,8404.9,5033,8218.5,4995.7z M8609,4535c43.9-32.9,258.8-243.5,476-465c320.3-322.5,403.6-419,423.4-489.2c28.5-107.5,28.5-111.9,0-219.4c-19.7-68-89.9-153.5-322.5-390.4l-298.3-300.5L8233.8,3322c-359.7,359.7-653.7,664.6-653.7,677.8s131.6,151.4,291.8,309.3c254.5,252.3,304.9,289.5,388.3,307.1C8389.6,4642.5,8510.2,4614,8609,4535z M7964,3065.3l658.1-658.1L5577.4-637.5L2534.9-3680l-662.5,664.6l-664.7,662.5L4245.9,685.2C5917.4,2356.8,7288.4,3723.4,7295,3723.4C7301.6,3723.4,7602.1,3427.2,7964,3065.3z M1620.2-3291.7l609.8-609.8l-840.2-221.6c-460.7-122.8-840.1-221.5-842.3-219.4c-2.2,4.4,234.7,914.7,399.2,1524.6c19.7,74.6,41.7,136,50.4,136C1003.8-2681.9,1284.5-2956.1,1620.2-3291.7z"/></g></g>
</svg>