<svg width="56" height="53" viewBox="0 0 56 53" fill="none" xmlns="http://www.w3.org/2000/svg">
<path d="M27.7062 50.6022H30.605C44.4779 50.6022 55.866 39.3573 55.866 25.197C55.659 11.2449 44.4779 0 30.605 0H27.7062C13.8334 0 2.65234 11.2449 2.65234 25.4052C2.65234 39.3573 13.8334 50.6022 27.7062 50.6022Z" fill="#979695"/>
<path d="M25.261 52.06H28.1598C42.0326 52.06 53.4207 40.815 53.4207 26.6547C53.4207 12.7027 42.2396 1.24951 28.1598 1.24951H25.261C11.1811 1.45775 0 12.7027 0 26.6547C0 40.815 11.1811 52.06 25.261 52.06Z" fill="white"/>
<g clip-path="url(#clip0)">
<path d="M41.143 10.9521C40.1054 9.91527 38.7257 9.34424 37.2582 9.34424C35.7907 9.34424 34.411 9.91527 33.3733 10.9521L13.3129 30.9953C13.1938 31.1143 13.1055 31.264 13.0604 31.4322L10.7212 40.1546C10.6311 40.4908 10.7273 40.8496 10.9736 41.0956C11.1589 41.2809 11.4079 41.3811 11.6631 41.3811C11.7472 41.3811 11.832 41.3703 11.9154 41.3479L20.6453 39.0109C20.8137 38.9658 20.9635 38.8775 21.0826 38.7585L41.143 18.7153C42.1807 17.6785 42.7521 16.3 42.7521 14.8337C42.7521 13.3674 42.1807 11.9889 41.143 10.9521ZM32.7263 14.3543L34.5424 16.1688L17.1973 33.4989L15.3813 31.6844L32.7263 14.3543ZM13.0422 39.029L14.5071 33.5666L18.5092 37.5653L13.0422 39.029ZM20.3929 36.6918L18.5764 34.8767L35.9214 17.5466L37.7378 19.3615L20.3929 36.6918ZM39.764 17.3374L39.117 17.9838L34.1054 12.9764L34.7524 12.33C35.4217 11.6612 36.3116 11.2929 37.2582 11.2929C38.2048 11.2929 39.0947 11.6612 39.764 12.33C41.1456 13.7105 41.1456 15.9568 39.764 17.3374Z" fill="black"/>
</g>
<defs>
<clipPath id="clip0">
<rect width="32.0643" height="32.0369" fill="white" transform="translate(10.688 9.34424)"/>
</clipPath>
</defs>
</svg>
