<svg width="28" height="25" viewBox="0 0 28 25" fill="none" xmlns="http://www.w3.org/2000/svg">
<path d="M2.26757 24.0112C0.977069 24.0112 0.449207 23.0967 1.09456 21.9792L12.8267 1.65857C13.4719 0.540894 14.5278 0.540894 15.1732 1.65857L26.9054 21.9792C27.5507 23.0967 27.0228 24.0112 25.7321 24.0112H2.26757Z" fill="#FF0000"/>
<path d="M26.9054 21.9792L15.1732 1.65857C14.8506 1.09973 14.4253 0.820526 14 0.820312V24.0112H25.7322C27.0227 24.0112 27.5508 23.0967 26.9054 21.9792Z" fill="#FF0000"/>
<path d="M25.7322 24.8315H2.26759C1.35157 24.8315 0.614146 24.4645 0.244792 23.8245C-0.124776 23.1845 -0.0739334 22.3623 0.384074 21.5691L12.1163 1.24841C12.5743 0.455017 13.2608 0 13.9998 0C14.7389 0 15.4255 0.455017 15.8835 1.24841L27.6159 21.5691C28.0739 22.3623 28.1247 23.1843 27.7552 23.8243C27.3858 24.4645 26.6484 24.8315 25.7322 24.8315ZM14 1.64084C13.8925 1.64084 13.708 1.77307 13.5373 2.06873L1.80509 22.3894C1.63441 22.6851 1.61198 22.9113 1.66581 23.0042C1.71943 23.0969 1.92622 23.1907 2.26759 23.1907H25.7322C26.0735 23.1907 26.2805 23.0969 26.3344 23.004C26.388 22.9111 26.3656 22.6851 26.1949 22.3894L14.4627 2.06873C14.292 1.77307 14.1072 1.64084 14 1.64084Z" fill="black"/>
<path d="M13.9999 17.4141C12.8971 17.4141 12 18.3113 12 19.4142C12 20.5168 12.8971 21.4141 13.9999 21.4141C15.1027 21.4141 16 20.5168 16 19.4142C16 18.3113 15.1027 17.4141 13.9999 17.4141Z" fill="white"/>
<path d="M13.9999 6.41406C12.8971 6.41406 12 7.24958 12 8.27654V14.5518C12 15.5787 12.8971 16.4141 13.9999 16.4141C15.1027 16.4141 16 15.5787 16 14.5518V8.27654C16 7.24958 15.1027 6.41406 13.9999 6.41406Z" fill="white"/>
<path d="M27.6159 21.5691L15.8835 1.24841C15.4255 0.455017 14.7389 0 14 0V1.64084C14.1075 1.64084 14.292 1.77328 14.4627 2.06873L26.1949 22.3894C26.3656 22.6851 26.388 22.9111 26.3344 23.004C26.2806 23.0969 26.0738 23.1907 25.7322 23.1907H14V24.8315H25.7322C26.6484 24.8315 27.3856 24.4645 27.7552 23.8243C28.1248 23.1843 28.0739 22.3623 27.6159 21.5691Z" fill="black"/>
</svg>
