<?xml version="1.0" encoding="utf-8"?>
<!-- Svg Vector Icons : http://www.onlinewebfonts.com/icon -->
<!DOCTYPE svg PUBLIC "-//W3C//DTD SVG 1.1//EN" "http://www.w3.org/Graphics/SVG/1.1/DTD/svg11.dtd">
<svg version="1.1" xmlns="http://www.w3.org/2000/svg" xmlns:xlink="http://www.w3.org/1999/xlink" x="0px" y="0px" viewBox="0 0 1000 1000" enable-background="new 0 0 1000 1000" xml:space="preserve">
<metadata> Svg Vector Icons : http://www.onlinewebfonts.com/icon </metadata>
<g><path d="M500,11.9C229.4,11.9,10,230.4,10,500c0,269.6,219.4,488.1,490,488.1c270.6,0,490-218.5,490-488.1C990,230.4,770.6,11.9,500,11.9z M500,933.9C259.4,933.9,64.4,739.6,64.4,500c0-239.6,195-433.9,435.6-433.9S935.6,260.4,935.6,500C935.6,739.6,740.5,933.9,500,933.9z M455.2,774.9h93.3v-65.3h-93.3V774.9z M638.6,265.5c-31.8-28.9-74.3-43.4-127.7-43.4c-50.4,0-90.9,13.5-121.5,40.4c-30.6,26.9-49.1,65.8-55.3,116.4l68.9,8.2c6-37.8,18.5-65.6,37.6-83.4c19.1-17.8,42.9-26.7,71.5-26.7c29.5,0,54.5,9.8,74.8,29.5c20.3,19.6,30.5,42.4,30.5,68.4c0,14.3-3.5,27.6-10.4,39.7c-6.9,12.1-22,28.4-45.2,48.7c-23.2,20.4-39.3,35.9-48.2,46.5c-12.2,14.6-38,29-43.4,43.4c-7.5,19-11.2,7.8-11.2,33.9c0,4.5,0.1,11.1,0.4,20h81.4c0.5-26.7,2.4-12.1,5.6-23.9c3.2-11.9,8.2-22.4,14.9-31.5c6.7-9.1,21-23.4,42.8-42.6c32.5-28.7,54.3-53,65.5-73c11.2-20,16.7-41.9,16.7-65.6C686.3,329.4,670.4,294.5,638.6,265.5z"/></g>
</svg>