<svg width="57" height="53" viewBox="0 0 57 53" fill="none" xmlns="http://www.w3.org/2000/svg">
<g clip-path="url(#clip0)">
<path d="M26.1325 50.6022H29.0313C42.9041 50.6022 54.2923 39.3573 54.2923 25.197C54.0852 11.2449 42.9041 0 29.0313 0H26.1325C12.2597 0 1.07861 11.2449 1.07861 25.4052C1.07861 39.3573 12.2597 50.6022 26.1325 50.6022Z" fill="#979695"/>
<path d="M25.261 52.06H28.1598C42.0326 52.06 53.4207 40.815 53.4207 26.6547C53.4207 12.7027 42.2396 1.24951 28.1598 1.24951H25.261C11.1811 1.45775 0 12.7027 0 26.6547C0 40.815 11.1811 52.06 25.261 52.06Z" fill="white"/>
<g clip-path="url(#clip1)">
<path d="M14.0444 38.4995H30.2945C35.8516 38.4995 40.2945 34.0566 40.2945 28.4995C40.2945 22.9423 35.8516 18.4995 30.2945 18.4995H17.0622L19.9283 21.3656C20.4165 21.8538 20.4165 22.6453 19.9283 23.1334C19.4402 23.6216 18.6487 23.6216 18.1606 23.1334L13.1606 18.1334C13.1604 18.1332 13.1602 18.133 13.1599 18.1327C13.1311 18.1038 13.1038 18.0734 13.0778 18.0419C13.0659 18.0274 13.0556 18.0121 13.0445 17.9973C13.0312 17.9795 13.0174 17.9621 13.005 17.9436C12.9931 17.9258 12.9828 17.9074 12.9719 17.8891C12.9619 17.8723 12.9514 17.856 12.9422 17.8387C12.9322 17.8201 12.9238 17.8009 12.9148 17.7819C12.9063 17.7639 12.8973 17.7462 12.8897 17.7278C12.8821 17.7094 12.8759 17.6906 12.8692 17.6718C12.8621 17.6521 12.8546 17.6326 12.8484 17.6124C12.8427 17.5936 12.8386 17.5746 12.8338 17.5556C12.8286 17.5351 12.8229 17.5147 12.8187 17.4938C12.8144 17.4718 12.8118 17.4496 12.8086 17.4276C12.806 17.4093 12.8025 17.3913 12.8007 17.3729C12.7926 17.2909 12.7926 17.2082 12.8007 17.1261C12.8025 17.1077 12.806 17.0898 12.8086 17.0715C12.8118 17.0494 12.8144 17.0272 12.8188 17.0053C12.8229 16.9844 12.8287 16.9641 12.8339 16.9435C12.8386 16.9245 12.8428 16.9055 12.8485 16.8867C12.8546 16.8666 12.8621 16.8471 12.8692 16.8274C12.8759 16.8086 12.8821 16.7898 12.8897 16.7713C12.8973 16.7529 12.9063 16.7352 12.9148 16.7173C12.9238 16.6982 12.9322 16.6791 12.9422 16.6604C12.9513 16.6432 12.9619 16.6269 12.9719 16.6101C12.9828 16.5918 12.9931 16.5734 13.005 16.5556C13.0173 16.5371 13.0311 16.5197 13.0444 16.5019C13.0555 16.4871 13.0659 16.4718 13.0778 16.4573C13.1038 16.4257 13.1311 16.3953 13.1599 16.3664C13.1602 16.3662 13.1604 16.366 13.1606 16.3657L18.1606 11.3656C18.6487 10.8775 19.4402 10.8775 19.9283 11.3656C20.4165 11.8538 20.4165 12.6452 19.9283 13.1334L17.0622 15.9995H30.2945C37.2323 15.9995 42.7944 21.5617 42.7944 28.4995C42.7944 35.4374 37.2323 40.9995 30.2945 40.9995H14.0445C13.3541 40.9995 12.7945 40.4399 12.7945 39.7495C12.7945 39.0592 13.3541 38.4995 14.0444 38.4995Z" fill="black"/>
</g>
</g>
<defs>
<clipPath id="clip0">
<rect width="56.1124" height="52.0599" fill="white"/>
</clipPath>
<clipPath id="clip1">
<rect width="30" height="30" fill="white" transform="matrix(-1 0 0 1 42.7944 11)"/>
</clipPath>
</defs>
</svg>
