<?xml version="1.0" encoding="utf-8"?>
<!-- Svg Vector Icons : http://www.onlinewebfonts.com/icon -->
<!DOCTYPE svg PUBLIC "-//W3C//DTD SVG 1.1//EN" "http://www.w3.org/Graphics/SVG/1.1/DTD/svg11.dtd">
<svg version="1.1" xmlns="http://www.w3.org/2000/svg" xmlns:xlink="http://www.w3.org/1999/xlink" x="0px" y="0px" viewBox="0 0 1000 1000" enable-background="new 0 0 1000 1000" xml:space="preserve">
<metadata> Svg Vector Icons : http://www.onlinewebfonts.com/icon </metadata>
<g><g transform="translate(0.000000,511.000000) scale(0.100000,-0.100000)"><path d="M3874.8,4972.9c-236.9-75.6-416.6-265.5-477.8-502.3c-20.4-79.6-30.6-216.4-30.6-402.3v-279.7l-1127.2-6.1c-1086.3-6.1-1131.3-8.2-1198.7-47c-112.3-65.3-155.2-140.9-155.2-265.5c0-118.4,36.8-185.8,140.9-263.4c47-36.8,91.9-42.9,300.2-49l243-8.2l4.1-3669.5l6.1-3667.5l67.4-136.8c112.3-228.7,283.9-371.7,524.8-432.9C2278-4785.9,2619-4790,5000-4790c2381,0,2722,4.1,2828.2,32.7c241,61.3,412.5,204.2,524.8,432.9l67.4,136.8l6.1,3667.5l4.1,3669.5l243,8.2c208.3,6.1,253.2,12.2,300.2,49c104.2,77.6,140.9,145,140.9,263.4c0,132.7-47,204.2-173.6,271.6l-89.9,44.9H7742.4H6633.6v281.8c0,332.9-30.6,477.8-134.8,631c-40.8,57.2-120.5,136.8-177.7,177.7c-198.1,132.7-214.4,134.8-1329.4,132.7C4083.1,5009.6,3979,5005.5,3874.8,4972.9z M6039.4,4511.4c100-51.1,124.6-136.8,124.6-447.2v-277.7H5000H3836.1v285.9c0,316.5,18.4,383.9,118.4,437C4036.2,4554.3,5953.6,4556.3,6039.4,4511.4z M7818-418c0-2552.5-6.1-3587.8-22.5-3634.8c-12.3-34.7-38.8-73.5-59.2-83.7c-51.1-28.6-5421.5-28.6-5472.6,0c-20.4,10.2-47,49-59.2,83.7c-16.3,47-22.5,1082.3-22.5,3634.8v3571.5h2818h2818V-418z"/><path d="M4906.1,2675.6c-140.9-61.3-130.7,206.2-130.7-3179.4v-3056.9l63.3-63.3c53.1-53.1,77.6-63.3,161.3-63.3c83.7,0,108.2,10.2,161.3,63.3l63.3,63.3v3056.9c0,3393.8,12.2,3118.2-134.8,3179.4C5006.1,2710.3,4987.7,2710.3,4906.1,2675.6z"/><path d="M3362.3,2181.4c-124.6-67.4-118.4,89.8-118.4-2673c0-2762.8-6.1-2628.1,120.5-2693.4c77.6-40.8,151.1-40.8,226.7-2c130.7,67.4,122.5-98,122.5,2685.2s8.2,2617.9-122.5,2685.2C3517.5,2222.3,3433.8,2222.3,3362.3,2181.4z"/><path d="M6415.1,2193.7c-26.5-10.2-65.3-49-87.8-85.8c-40.8-67.4-40.8-102.1-40.8-2605.6c0-2787.4-8.2-2622,122.5-2689.3c120.5-63.3,257.3-20.4,314.5,100.1c30.6,63.3,32.6,298.1,32.6,2583.1c0,2127.8-4.1,2526-28.6,2585.2C6680.6,2191.7,6537.6,2242.7,6415.1,2193.7z"/></g></g>
</svg>